<svg width="24" height="24" viewBox="0 0 24 24" fill="none" xmlns="http://www.w3.org/2000/svg"><path fill-rule="evenodd" clip-rule="evenodd" d="M9.858 6.481c.553 0 1 .45 1 1.006 0 .25.002.493.003.729h6.782c.552 0 1 .45 1 1.006 0 .555-.448 1.005-1 1.005h-6.764c.006.353.013.686.021 1.001.46-.059.952-.091 1.478-.091 2.85 0 4.584.87 5.572 2.095.958 1.186 1.055 2.513 1.055 3.11 0 2.646-2.456 4.658-5.629 4.658-.552 0-1-.45-1-1.006 0-.555.448-1.006 1-1.006 2.436 0 3.629-1.447 3.629-2.645 0-.409-.073-1.182-.607-1.844-.313-.387-.848-.813-1.792-1.082-.288.97-.84 2.406-1.696 3.694-.996 1.502-2.569 3.044-4.799 3.044-1.038 0-1.859-.401-2.4-1.061-.516-.63-.71-1.409-.711-2.09 0-.68.237-2.138 1.307-3.447.61-.745 1.458-1.4 2.607-1.842-.014-.457-.025-.952-.034-1.488H6.229c-.553 0-1-.45-1-1.005 0-.556.447-1.006 1-1.006H8.86c0-.237-.003-.48-.003-.729 0-.555.448-1.005 1-1.006zm-.84 7.395a3.96 3.96 0 00-1.167.959c-.712.87-.851 1.843-.851 2.17 0 .324.097.617.254.809.132.16.368.33.857.33.582 0 1.123-.194 1.625-.535a5.109 5.109 0 01-.212-.527c-.146-.433-.266-.965-.362-1.696-.055-.421-.103-.917-.144-1.51zm3.36-.728c-.515 0-.98.037-1.398.1.045.782.102 1.39.165 1.874.044.331.09.597.138.814.616-.943 1.052-1.995 1.312-2.784-.071-.001-.144-.004-.217-.004z" fill="currentColor"/><path d="M9.906 1.042a.593.593 0 01.388-.017l.237.09c1.423.52 2.784 1.743 3.668 2.993l.148.192c.25.32.343.703.216 1.083-.124.379-.459.725-.887.94-.429.216-.904.278-1.28.15-.38-.125-.627-.43-.732-.825l-.06-.225c-.302-1.28-.757-2.326-1.722-3.27A6.756 6.756 0 009.722 2a.602.602 0 01-.173-.35.566.566 0 01.062-.373.56.56 0 01.295-.235z" fill="currentColor"/></svg>