<svg width="16" height="16" viewBox="0 0 16 16" fill="none" xmlns="http://www.w3.org/2000/svg">
<path d="M4.34189 4.38604C4.13772 4.45409 4 4.64516 4 4.86038V11.8063C4 12.1476 4.33435 12.3885 4.65811 12.2806L9.65811 10.614C9.86229 10.5459 10 10.3548 10 10.1396V3.19371C10 2.85243 9.66565 2.61145 9.34189 2.71937L4.34189 4.38604Z" fill="#858585"/>
<path d="M11.5 3.5C11.2239 3.5 11 3.72386 11 4V11.5764L5.4178 12.5068C5.14542 12.5522 4.96141 12.8098 5.0068 13.0822C5.0522 13.3546 5.30981 13.5386 5.5822 13.4932L11.5822 12.4932C11.8233 12.453 12 12.2444 12 12V4C12 3.72386 11.7761 3.5 11.5 3.5Z" fill="#858585"/>
</svg>
