<svg width="16" height="16" viewBox="0 0 16 16" fill="none" xmlns="http://www.w3.org/2000/svg">
<path fill-rule="evenodd" clip-rule="evenodd" d="M7.79289 3.29289C8.18342 2.90237 8.81658 2.90237 9.20711 3.29289L13.9142 8L9.20711 12.7071C8.81658 13.0976 8.18342 13.0976 7.79289 12.7071C7.40237 12.3166 7.40237 11.6834 7.79289 11.2929L10.0858 9H6C4.89543 9 4 9.89543 4 11V12C4 12.5523 3.55228 13 3 13C2.44772 13 2 12.5523 2 12V11C2 8.79086 3.79086 7 6 7H10.0858L7.79289 4.70711C7.40237 4.31658 7.40237 3.68342 7.79289 3.29289Z" fill="#858585"/>
</svg>
