<svg width="16" height="16" viewBox="0 0 16 16" fill="none" xmlns="http://www.w3.org/2000/svg">
<path fill-rule="evenodd" clip-rule="evenodd" d="M0 8C0 12.4183 3.58172 16 8 16C12.4183 16 16 12.4183 16 8C16 3.58172 12.4183 0 8 0C3.58172 0 0 3.58172 0 8ZM8 14C11.3137 14 14 11.3137 14 8C14 4.68629 11.3137 2 8 2C4.68629 2 2 4.68629 2 8C2 11.3137 4.68629 14 8 14ZM9.25 5C9.25 5.69036 8.69036 6.25 8 6.25C7.30964 6.25 6.75 5.69036 6.75 5C6.75 4.30964 7.30964 3.75 8 3.75C8.69036 3.75 9.25 4.30964 9.25 5ZM7 11.25V7.75C7 7.19772 7.44772 6.75 8 6.75C8.55228 6.75 9 7.19772 9 7.75V11.25C9 11.8023 8.55228 12.25 8 12.25C7.44772 12.25 7 11.8023 7 11.25Z" fill="#858585"/>
</svg>
