<svg width="16" height="16" viewBox="0 0 16 16" fill="none" xmlns="http://www.w3.org/2000/svg">
<path fill-rule="evenodd" clip-rule="evenodd" d="M0 8C0 12.4183 3.58172 16 8 16C12.4183 16 16 12.4183 16 8C16 3.58172 12.4183 0 8 0C3.58172 0 0 3.58172 0 8ZM8 14C11.3137 14 14 11.3137 14 8C14 4.68629 11.3137 2 8 2C4.68629 2 2 4.68629 2 8C2 11.3137 4.68629 14 8 14Z" fill="#858585"/>
<path d="M8.8368 11.6264C8.8368 12.0885 8.46213 12.4632 7.99995 12.4632C7.53777 12.4632 7.1631 12.0885 7.1631 11.6264C7.1631 11.1642 7.53777 10.7895 7.99995 10.7895C8.46213 10.7895 8.8368 11.1642 8.8368 11.6264Z" fill="#858585"/>
<path fill-rule="evenodd" clip-rule="evenodd" d="M7.99995 4.65261C7.07559 4.65261 6.32625 5.40195 6.32625 6.32631C6.32625 6.63443 6.07647 6.88421 5.76835 6.88421C5.46023 6.88421 5.21045 6.63443 5.21045 6.32631C5.21045 4.78571 6.45935 3.5368 7.99995 3.5368C9.54055 3.5368 10.7895 4.78571 10.7895 6.32631C10.7895 6.98561 10.6217 7.48801 10.3341 7.88357C10.0571 8.26441 9.69755 8.5035 9.41144 8.68232C9.36517 8.71124 9.32147 8.7383 9.2801 8.76392C9.0389 8.91327 8.87728 9.01334 8.7511 9.14477C8.63854 9.26203 8.55785 9.40372 8.55785 9.67371C8.55785 9.98183 8.30807 10.2316 7.99995 10.2316C7.69183 10.2316 7.44205 9.98183 7.44205 9.67371C7.44205 9.10685 7.64032 8.69064 7.94618 8.37204C8.17946 8.12904 8.48025 7.94475 8.71372 7.8017C8.75107 7.77881 8.78671 7.75697 8.82007 7.73612C9.09186 7.56626 9.29022 7.4218 9.43167 7.22729C9.56242 7.04752 9.67366 6.78281 9.67366 6.32631C9.67366 5.40195 8.92431 4.65261 7.99995 4.65261Z" fill="#858585"/>
<path d="M8.8368 11.6264C8.8368 12.0885 8.46213 12.4632 7.99995 12.4632C7.53777 12.4632 7.1631 12.0885 7.1631 11.6264C7.1631 11.1642 7.53777 10.7895 7.99995 10.7895C8.46213 10.7895 8.8368 11.1642 8.8368 11.6264Z" stroke="#858585" stroke-width="0.3"/>
<path fill-rule="evenodd" clip-rule="evenodd" d="M7.99995 4.65261C7.07559 4.65261 6.32625 5.40195 6.32625 6.32631C6.32625 6.63443 6.07647 6.88421 5.76835 6.88421C5.46023 6.88421 5.21045 6.63443 5.21045 6.32631C5.21045 4.78571 6.45935 3.5368 7.99995 3.5368C9.54055 3.5368 10.7895 4.78571 10.7895 6.32631C10.7895 6.98561 10.6217 7.48801 10.3341 7.88357C10.0571 8.26441 9.69755 8.5035 9.41144 8.68232C9.36517 8.71124 9.32147 8.7383 9.2801 8.76392C9.0389 8.91327 8.87728 9.01334 8.7511 9.14477C8.63854 9.26203 8.55785 9.40372 8.55785 9.67371C8.55785 9.98183 8.30807 10.2316 7.99995 10.2316C7.69183 10.2316 7.44205 9.98183 7.44205 9.67371C7.44205 9.10685 7.64032 8.69064 7.94618 8.37204C8.17946 8.12904 8.48025 7.94475 8.71372 7.8017C8.75107 7.77881 8.78671 7.75697 8.82007 7.73612C9.09186 7.56626 9.29022 7.4218 9.43167 7.22729C9.56242 7.04752 9.67366 6.78281 9.67366 6.32631C9.67366 5.40195 8.92431 4.65261 7.99995 4.65261Z" stroke="#858585" stroke-width="0.3"/>
</svg>
