<svg width="16" height="16" viewBox="0 0 16 16" fill="none" xmlns="http://www.w3.org/2000/svg">
<path d="M9.4 3.80002C9.4 4.32469 9.11139 4.78195 8.68427 5.02169C9.15865 5.72718 9.84397 6.49567 10.625 6.60002C11.2207 6.67962 11.9105 6.37799 12.4758 6.03458C12.3025 5.80154 12.2 5.51275 12.2 5.20002C12.2 4.42683 12.8268 3.80002 13.6 3.80002C14.3732 3.80002 15 4.42683 15 5.20002C15 5.97322 14.3732 6.60002 13.6 6.60002C13.5216 6.60002 13.4447 6.59358 13.3698 6.58119L12.745 10.3302C12.6325 11.0052 12.0484 11.5 11.364 11.5H4.63598C3.9516 11.5 3.36754 11.0052 3.25503 10.3302L2.63019 6.58119C2.5553 6.59358 2.4784 6.60002 2.4 6.60002C1.6268 6.60002 1 5.97322 1 5.20002C1 4.42683 1.6268 3.80002 2.4 3.80002C3.1732 3.80002 3.8 4.42683 3.8 5.20002C3.8 5.51275 3.69746 5.80154 3.52417 6.03458C4.08949 6.37799 4.7793 6.67962 5.375 6.60002C6.15603 6.49567 6.84135 5.72718 7.31573 5.02169C6.88861 4.78195 6.6 4.32469 6.6 3.80002C6.6 3.02683 7.2268 2.40002 8 2.40002C8.7732 2.40002 9.4 3.02683 9.4 3.80002Z" fill="#858585"/>
<path d="M4.5 12.2C4.1134 12.2 3.8 12.5134 3.8 12.9C3.8 13.2866 4.1134 13.6 4.5 13.6H11.5C11.8866 13.6 12.2 13.2866 12.2 12.9C12.2 12.5134 11.8866 12.2 11.5 12.2H4.5Z" fill="#858585"/>
</svg>
