<svg width="16" height="16" viewBox="0 0 16 16" fill="none" xmlns="http://www.w3.org/2000/svg">
<path d="M12.2071 5.20705C12.5976 4.81652 12.5976 4.18336 12.2071 3.79283C11.8166 3.40231 11.1834 3.40231 10.7929 3.79283L7.99999 6.58574L5.20711 3.79286C4.81658 3.40233 4.18342 3.40233 3.79289 3.79286C3.40237 4.18338 3.40237 4.81655 3.79289 5.20707L6.58578 7.99995L3.7929 10.7928C3.40238 11.1834 3.40238 11.8165 3.7929 12.207C4.18342 12.5976 4.81659 12.5976 5.20711 12.207L7.99999 9.41416L10.7929 12.2071C11.1834 12.5976 11.8166 12.5976 12.2071 12.2071C12.5976 11.8165 12.5976 11.1834 12.2071 10.7929L9.41421 7.99995L12.2071 5.20705Z" fill="#858585"/>
</svg>
