<svg width="16" height="16" viewBox="0 0 16 16" fill="none" xmlns="http://www.w3.org/2000/svg">
<path fill-rule="evenodd" clip-rule="evenodd" d="M10.7574 12.1716C9.96696 12.6951 9.01908 13 8 13C5.23858 13 3 10.7614 3 8C3 5.23858 5.23858 3 8 3C10.7614 3 13 5.23858 13 8C13 9.01908 12.6951 9.96696 12.1716 10.7574L14.2071 12.7929C14.5976 13.1834 14.5976 13.8166 14.2071 14.2071C13.8166 14.5976 13.1834 14.5976 12.7929 14.2071L10.7574 12.1716ZM11 8C11 9.65685 9.65685 11 8 11C6.34315 11 5 9.65685 5 8C5 6.34315 6.34315 5 8 5C9.65685 5 11 6.34315 11 8Z" fill="#858585"/>
</svg>
