<svg width="16" height="16" viewBox="0 0 16 16" fill="none" xmlns="http://www.w3.org/2000/svg">
<path d="M4 8C5.10457 8 6 7.10457 6 6C6 4.89543 5.10457 4 4 4C2.89543 4 2 4.89543 2 6C2 7.10457 2.89543 8 4 8Z" fill="#858585"/>
<path d="M12 8C13.1046 8 14 7.10457 14 6C14 4.89543 13.1046 4 12 4C10.8954 4 10 4.89543 10 6C10 7.10457 10.8954 8 12 8Z" fill="#858585"/>
<path d="M11.8891 10.8891C9.7412 13.037 6.2588 13.037 4.11091 10.8891C3.72039 10.4986 3.72039 9.8654 4.11091 9.47487C4.50144 9.08435 5.1346 9.08435 5.52513 9.47487C6.89196 10.8417 9.10804 10.8417 10.4749 9.47487C10.8654 9.08435 11.4986 9.08435 11.8891 9.47487C12.2796 9.8654 12.2796 10.4986 11.8891 10.8891Z" fill="#858585"/>
</svg>
