<svg width="24" height="24" viewBox="0 0 24 24" fill="none" xmlns="http://www.w3.org/2000/svg"><path d="M4.89 18.41c-2.446-2.377-2.82-6.166-.974-9.034 1.29-2.003 2.85-3.795 4.374-5.626 1.226 1.517 2.633 2.954 3.712 4.577 1.079-1.623 2.462-3.08 3.708-4.577 1.497 1.854 3.083 3.622 4.374 5.627 1.846 2.867 1.472 6.656-.975 9.033-2.027 1.969-5.253 1.724-7.109-.321-1.855 2.045-5.082 2.29-7.11.32z" stroke="currentColor" stroke-width="1.5" stroke-linejoin="round"/><path fill-rule="evenodd" clip-rule="evenodd" d="M15.685 6.386c-.84.973-1.613 1.885-2.273 2.879a1.693 1.693 0 01-2.821 0c-.653-.983-1.406-1.855-2.234-2.812l-.06-.07C7.22 7.68 6.213 8.938 5.34 10.294c-1.424 2.212-1.119 5.105.73 6.902 1.29 1.251 3.415 1.146 4.676-.244a1.694 1.694 0 012.508 0c1.261 1.39 3.387 1.495 4.675.244 1.85-1.797 2.155-4.69.73-6.902-.875-1.36-1.887-2.595-2.974-3.907z" fill="url(#paint0_linear_23698_16556)"/><defs><linearGradient id="paint0_linear_23698_16556" x1="19.105" y1="8.488" x2="6.604" y2="16.235" gradientUnits="userSpaceOnUse"><stop stop-color="#fff"/><stop offset="1"/></linearGradient></defs></svg>