<svg width="24" height="24" viewBox="0 0 24 24" fill="none" xmlns="http://www.w3.org/2000/svg"><path fill-rule="evenodd" clip-rule="evenodd" d="M15.5 3.25a1.75 1.75 0 100 3.5 1.75 1.75 0 000-3.5zM12.25 5a3.25 3.25 0 116.5 0 3.25 3.25 0 01-6.5 0zm-4 5A.75.75 0 019 9.25h13a.75.75 0 010 1.5h-3.25v5.862l2.254 4.227a.75.75 0 01-1.324.706l-2.556-4.795h-3.238l-2.558 4.795a.75.75 0 11-1.323-.706l2.245-4.21V10.75H9a.75.75 0 01-.75-.75zm5.5.75v4.5h3.5v-4.5h-3.5zM6.965 6.826a.75.75 0 101.07-1.052l-2.75-2.8a.75.75 0 00-1.07 0l-2.75 2.8a.75.75 0 001.07 1.051L4 5.334V10a.75.75 0 001.5 0V5.334l1.465 1.492zm-5.49 10.339a.75.75 0 011.06.01L4 18.665V14a.75.75 0 011.5 0v4.666l1.465-1.492a.75.75 0 111.07 1.052l-2.75 2.8a.75.75 0 01-1.07 0l-2.75-2.8a.75.75 0 01.01-1.061z" fill="currentColor"/></svg>