<svg width="24" height="24" viewBox="0 0 24 24" fill="none" xmlns="http://www.w3.org/2000/svg"><path fill-rule="evenodd" clip-rule="evenodd" d="M4 6.5a3.75 3.75 0 013.75-3.75h8.5A3.75 3.75 0 0120 6.5v11.884c0 2.295-2.645 3.58-4.45 2.161l-3.396-2.67a.25.25 0 00-.309 0l-3.395 2.67C6.645 21.964 4 20.68 4 18.384V6.5zm3.75-2.25A2.25 2.25 0 005.5 6.5v11.884c0 1.043 1.202 1.627 2.023.982l3.395-2.67a1.75 1.75 0 012.164 0l3.395 2.67c.82.645 2.023.06 2.023-.982V6.5a2.25 2.25 0 00-2.25-2.25h-8.5z" fill="currentColor"/></svg>