<svg width="24" height="24" viewBox="0 0 24 24" fill="none" xmlns="http://www.w3.org/2000/svg"><path fill-rule="evenodd" clip-rule="evenodd" d="M3.75 2a.75.75 0 00-.632 1.154l3.858 6.028a7.5 7.5 0 1010.049 0l3.857-6.028A.75.75 0 0020.25 2h-4.873c-.39 0-.696.187-.89.348-.198.167-.354.369-.462.548l-2.021 3.29L10.009 2.9v-.002a2.205 2.205 0 00-.465-.55c-.193-.161-.5-.348-.89-.348H3.75zm12.064 6.29L18.88 3.5h-3.431a.823.823 0 00-.14.17l-.004.008-2.24 3.647a7.45 7.45 0 012.749.966zm-4.874-.966l-2.215-3.65-.003-.003a.82.82 0 00-.139-.171H5.121l3.065 4.79a7.451 7.451 0 012.754-.966zM12 8.75a6 6 0 100 12 6 6 0 000-12zm0 4a2 2 0 100 4 2 2 0 000-4zm-3.5 2a3.5 3.5 0 117 0 3.5 3.5 0 01-7 0z" fill="currentColor"/></svg>