<svg width="24" height="24" viewBox="0 0 24 24" fill="none" xmlns="http://www.w3.org/2000/svg"><path fill-rule="evenodd" clip-rule="evenodd" d="M3.53 2.532A.749.749 0 102.47 3.59l2.898 2.897a14.552 14.552 0 00-3.083 4.081 3.362 3.362 0 00-.023 2.983c1.312 2.704 4.672 6.86 9.753 6.86 2.141 0 3.977-.738 5.482-1.794l3.005 3.004a.749.749 0 001.059-1.059L3.53 2.532zm13.561 15.68l-.284-.285.278.324.006-.04zm-.675-.675l-1.89-1.89a4.436 4.436 0 01-6.173-6.174L6.43 7.55a13.04 13.04 0 00-2.804 3.692 1.862 1.862 0 00-.014 1.655c1.22 2.512 4.187 6.014 8.405 6.014 1.674 0 3.151-.552 4.4-1.374zM9.44 10.56a2.936 2.936 0 004 4l-4-4zm9.212 4.994a12.391 12.391 0 001.768-2.658c.254-.524.249-1.13-.015-1.655-.602-1.202-1.652-2.726-3.088-3.942-1.43-1.21-3.211-2.089-5.302-2.089a7.47 7.47 0 00-3.05.656L7.84 4.743a9.043 9.043 0 014.174-1.032c2.537 0 4.648 1.07 6.271 2.445 1.618 1.37 2.785 3.067 3.46 4.413.47.938.483 2.035.023 2.983a14 14 0 01-2.055 3.064l-1.062-1.061z" fill="currentColor"/></svg>