<svg width="24" height="24" viewBox="0 0 24 24" fill="none" xmlns="http://www.w3.org/2000/svg"><path fill-rule="evenodd" clip-rule="evenodd" d="M2.015 16.25A3.75 3.75 0 005.765 20h12.47a3.75 3.75 0 003.75-3.75V9.994a3.75 3.75 0 00-3.75-3.75h-5.339a1.25 1.25 0 01-.92-.404l-.873-.95a2.75 2.75 0 00-2.025-.889H5.765a3.75 3.75 0 00-3.75 3.75v8.5zm3.75 2.25a2.25 2.25 0 01-2.25-2.25V7.751a2.25 2.25 0 012.25-2.25h3.313c.35 0 .684.147.92.404l.874.95a2.75 2.75 0 002.024.889h5.339a2.25 2.25 0 012.25 2.25v6.256a2.25 2.25 0 01-2.25 2.25H5.765z" fill="#1F1F1F"/></svg>