<svg width="24" height="24" viewBox="0 0 24 24" fill="none" xmlns="http://www.w3.org/2000/svg"><path fill-rule="evenodd" clip-rule="evenodd" d="M3 6.75A3.75 3.75 0 016.75 3h10.5A3.75 3.75 0 0121 6.75v10.5A3.75 3.75 0 0117.25 21H6.75A3.75 3.75 0 013 17.25V6.75zM6.75 4.5A2.25 2.25 0 004.5 6.75v6.872l1.974-2.078a2.75 2.75 0 014.029.044l2.901 3.192c.091.1.245.11.347.022l1.858-1.579a2.75 2.75 0 013.725.15l.166.166V6.75a2.25 2.25 0 00-2.25-2.25H6.75zM4.5 17.25V15.8l3.062-3.223a1.25 1.25 0 011.83.02l2.902 3.192a1.75 1.75 0 002.429.156l1.857-1.579a1.25 1.25 0 011.694.069L19.5 15.66v1.589a2.25 2.25 0 01-2.25 2.25H6.75a2.25 2.25 0 01-2.25-2.25zm8.764-8.221a.925.925 0 111.849 0 .925.925 0 01-1.85 0zm.924-2.425a2.425 2.425 0 100 4.85 2.425 2.425 0 000-4.85z" fill="currentColor"/></svg>