<svg width="24" height="24" viewBox="0 0 24 24" fill="none" xmlns="http://www.w3.org/2000/svg"><path d="M11.053 8.209a1 1 0 011-1h.011a1 1 0 110 2h-.011a1 1 0 01-1-1zM9.782 10.754a.75.75 0 01.75-.75h1.795a.75.75 0 01.75.75V15h1.473a.75.75 0 110 1.5h-4.503a.75.75 0 110-1.5h1.53v-3.496H10.53a.75.75 0 01-.75-.75z" fill="#1F1F1F"/><path fill-rule="evenodd" clip-rule="evenodd" d="M12 2C6.477 2 2 6.477 2 12s4.477 10 10 10 10-4.477 10-10S17.523 2 12 2zM3.5 12a8.5 8.5 0 1117 0 8.5 8.5 0 01-17 0z" fill="#1F1F1F"/></svg>