<svg width="24" height="24" viewBox="0 0 24 24" fill="none" xmlns="http://www.w3.org/2000/svg"><path d="M3.678 3.671h1.75a.75.75 0 100-1.5h-1.75a1.85 1.85 0 00-1.85 1.85v1.807l-.545-.546a.75.75 0 10-1.06 1.06L2.047 8.17a.75.75 0 001.061 0l1.826-1.826a.75.75 0 00-1.06-1.061l-.546.546V4.02a.35.35 0 01.349-.35z" fill="#1F1F1F"/><path fill-rule="evenodd" clip-rule="evenodd" d="M7.234 12.54l-2.22-1.408a1.75 1.75 0 010-2.956l7.457-4.728a2.75 2.75 0 012.945 0l7.456 4.728a1.75 1.75 0 010 2.956l-2.22 1.408 2.22 1.408a1.75 1.75 0 010 2.955l-7.456 4.729c-.899.57-2.046.57-2.945 0l-7.456-4.729a1.75 1.75 0 010-2.955l2.22-1.408zm6.04-7.825c.409-.26.93-.26 1.339 0l7.456 4.728a.25.25 0 010 .422l-2.817 1.787-3.836-2.433a2.75 2.75 0 00-2.945 0l-3.836 2.433-2.817-1.787a.25.25 0 010-.422l7.456-4.728zm5.978 8.713l2.817 1.786a.25.25 0 010 .422l-7.456 4.729c-.409.259-.93.259-1.339 0l-7.456-4.728a.25.25 0 010-.423l2.817-1.786 3.836 2.432c.899.57 2.046.57 2.945 0l3.836-2.432z" fill="#1F1F1F"/></svg>