<svg width="24" height="24" viewBox="0 0 24 24" fill="none" xmlns="http://www.w3.org/2000/svg"><path fill-rule="evenodd" clip-rule="evenodd" d="M15.75 2.741a2.958 2.958 0 114.183 4.184 2.958 2.958 0 01-4.184-4.184zm3.122 1.061a1.458 1.458 0 10-2.062 2.062 1.458 1.458 0 002.062-2.062zM12.875 12.794a4.427 4.427 0 014.427-4.427h1.088a4.427 4.427 0 014.427 4.427 2.331 2.331 0 01-2.332 2.331h-5.279a2.331 2.331 0 01-2.331-2.331zm4.427-2.927a2.927 2.927 0 00-2.927 2.927c0 .459.372.831.831.831h5.28a.831.831 0 00.83-.831 2.927 2.927 0 00-2.926-2.927h-1.088zM5.655 6.646a3.4 3.4 0 114.808 4.808 3.4 3.4 0 01-4.808-4.808zm3.748 1.06a1.9 1.9 0 10-2.687 2.687 1.9 1.9 0 002.687-2.687zM2.25 18.603a5.162 5.162 0 015.162-5.163h1.306a5.162 5.162 0 015.162 5.163 2.647 2.647 0 01-2.647 2.647H4.897a2.647 2.647 0 01-2.647-2.647zm5.162-3.663a3.662 3.662 0 00-3.662 3.663c0 .633.514 1.147 1.147 1.147h6.336c.633 0 1.147-.514 1.147-1.147a3.663 3.663 0 00-3.662-3.663H7.412z" fill="#1F1F1F"/></svg>