<svg width="24" height="24" viewBox="0 0 24 24" fill="none" xmlns="http://www.w3.org/2000/svg"><path fill-rule="evenodd" clip-rule="evenodd" d="M10.94 2.09a3.25 3.25 0 102.12 6.145 3.25 3.25 0 00-2.12-6.144zm-.594 3.644a1.75 1.75 0 113.308-1.142 1.75 1.75 0 01-3.308 1.142z" fill="#1F1F1F"/><path fill-rule="evenodd" clip-rule="evenodd" d="M4.498 4.442a.75.75 0 011.06.057l4.42 4.914h3.867l4.607-4.925a.75.75 0 011.096 1.024l-4.623 4.942v10.779a.75.75 0 01-1.5 0V15.75H8.159l1.364 3.192a.75.75 0 11-1.38.59l-1.81-4.237a.75.75 0 01.69-1.045h1.98v-3.678l-4.56-5.07a.75.75 0 01.055-1.06zm8.927 6.471v3.337H10.503v-3.337h2.922z" fill="#1F1F1F"/></svg>