<svg width="24" height="24" viewBox="0 0 24 24" fill="none" xmlns="http://www.w3.org/2000/svg"><path fill-rule="evenodd" clip-rule="evenodd" d="M3.016 6.75A3.75 3.75 0 016.766 3h12.48c.966 0 1.75.784 1.75 1.75v4.339a.75.75 0 01-.75.75H9.856v10.407a.75.75 0 01-.75.75h-4.34a1.75 1.75 0 01-1.75-1.75V6.75zm5.34 1.589H6.96a.75.75 0 100 1.5h1.396v2.323H6.96a.75.75 0 000 1.5h1.396v2.324H6.96a.75.75 0 000 1.5h1.396v2.01h-3.59a.25.25 0 01-.25-.25V6.75a2.25 2.25 0 012.25-2.25h12.48a.25.25 0 01.25.25v3.589h-1.992V6.944a.75.75 0 10-1.5 0v1.395H13.68V6.944a.75.75 0 10-1.5 0v1.395H9.856V6.944a.75.75 0 00-1.5 0v1.395z" fill="currentColor"/></svg>