<svg width="24" height="24" viewBox="0 0 24 24" fill="none" xmlns="http://www.w3.org/2000/svg"><path fill-rule="evenodd" clip-rule="evenodd" d="M3.53 2.47a.749.749 0 10-1.06 1.06l1.153 1.152A3.733 3.733 0 003 6.752a.75.75 0 001.5 0c0-.348.079-.678.22-.972L18.209 19.27c-.302.15-.642.235-1.002.235a.75.75 0 000 1.5c.776 0 1.498-.237 2.096-.64l1.167 1.166a.749.749 0 101.06-1.059l-18-18zm16.202 14.203l1.177 1.178a3.77 3.77 0 00.048-.597.75.75 0 00-1.225-.58zM6.114 3.055L7.31 4.251a.75.75 0 00-.56-1.25c-.216 0-.43.019-.636.054zM3 17.254a.75.75 0 011.5 0 2.25 2.25 0 002.25 2.25.75.75 0 010 1.5A3.75 3.75 0 013 17.254zM21 6.75a.75.75 0 01-1.5 0 2.25 2.25 0 00-2.25-2.25.75.75 0 010-1.5A3.75 3.75 0 0121 6.751zM3.75 8.741a.75.75 0 01.75.75v1a.75.75 0 01-1.5 0v-1a.75.75 0 01.75-.75zM21 9.49a.75.75 0 00-1.5 0v1a.75.75 0 001.5 0v-1zm-5.765-5.74a.75.75 0 01-.75.75h-1a.75.75 0 010-1.5h1a.75.75 0 01.75.75zm-.75 17.253a.75.75 0 000-1.5h-1a.75.75 0 100 1.5h1zM3.751 12.737a.75.75 0 01.75.75v1a.75.75 0 01-1.5 0v-1a.75.75 0 01.75-.75zm17.206.75a.75.75 0 10-1.5 0v1a.75.75 0 001.5 0v-1zM11.264 3.75a.75.75 0 01-.75.75h-1a.75.75 0 010-1.5h1a.75.75 0 01.75.75zm-.75 17.253a.75.75 0 000-1.5h-1a.75.75 0 000 1.5h1z" fill="currentColor"/></svg>