<svg width="24" height="24" viewBox="0 0 24 24" fill="none" xmlns="http://www.w3.org/2000/svg"><path fill-rule="evenodd" clip-rule="evenodd" d="M13.354 4.5H3.75a.75.75 0 000 1.5h9.604a2.751 2.751 0 005.293 0h1.603a.75.75 0 000-1.5h-1.604a2.751 2.751 0 00-5.293 0zm1.396.75a1.25 1.25 0 112.5 0 1.25 1.25 0 01-2.5 0zM5.354 11.25H3.75a.75.75 0 000 1.5h1.604a2.751 2.751 0 005.292 0h9.604a.75.75 0 000-1.5h-9.604a2.751 2.751 0 00-5.292 0zM9.25 12a1.25 1.25 0 10-2.5 0 1.25 1.25 0 002.5 0zM3.75 18a.75.75 0 000 1.5h6.604a2.751 2.751 0 005.293 0h4.603a.75.75 0 000-1.5h-4.604a2.751 2.751 0 00-5.293 0H3.75zm9.25-.5a1.25 1.25 0 110 2.5 1.25 1.25 0 010-2.5z" fill="#1F1F1F"/></svg>