<svg width="24" height="24" viewBox="0 0 24 24" fill="none" xmlns="http://www.w3.org/2000/svg"><path fill-rule="evenodd" clip-rule="evenodd" d="M5.75 3A2.75 2.75 0 003 5.75V8.5a2.75 2.75 0 002.75 2.75H8.5a2.75 2.75 0 002.75-2.75V5.75A2.75 2.75 0 008.5 3H5.75zM4.5 5.75c0-.69.56-1.25 1.25-1.25H8.5c.69 0 1.25.56 1.25 1.25V8.5c0 .69-.56 1.25-1.25 1.25H5.75c-.69 0-1.25-.56-1.25-1.25V5.75zm1.25 7A2.75 2.75 0 003 15.5v2.75A2.75 2.75 0 005.75 21H8.5a2.75 2.75 0 002.75-2.75V15.5a2.75 2.75 0 00-2.75-2.75H5.75zM4.5 15.5c0-.69.56-1.25 1.25-1.25H8.5c.69 0 1.25.56 1.25 1.25v2.75c0 .69-.56 1.25-1.25 1.25H5.75c-.69 0-1.25-.56-1.25-1.25V15.5zm8.25-9.75A2.75 2.75 0 0115.5 3h2.75A2.75 2.75 0 0121 5.75V8.5a2.75 2.75 0 01-2.75 2.75H15.5a2.75 2.75 0 01-2.75-2.75V5.75zM15.5 4.5c-.69 0-1.25.56-1.25 1.25V8.5c0 .69.56 1.25 1.25 1.25h2.75c.69 0 1.25-.56 1.25-1.25V5.75c0-.69-.56-1.25-1.25-1.25H15.5zm0 8.25a2.75 2.75 0 00-2.75 2.75v2.75A2.75 2.75 0 0015.5 21h2.75A2.75 2.75 0 0021 18.25V15.5a2.75 2.75 0 00-2.75-2.75H15.5zm-1.25 2.75c0-.69.56-1.25 1.25-1.25h2.75c.69 0 1.25.56 1.25 1.25v2.75c0 .69-.56 1.25-1.25 1.25H15.5c-.69 0-1.25-.56-1.25-1.25V15.5z" fill="currentColor"/></svg>