<svg width="24" height="24" viewBox="0 0 24 24" fill="none" xmlns="http://www.w3.org/2000/svg"><path fill-rule="evenodd" clip-rule="evenodd" d="M3.004 4.753c0-.967.784-1.75 1.75-1.75h1.5c.967 0 1.75.783 1.75 1.75V6.25A1.75 1.75 0 016.254 8h-1.5a1.75 1.75 0 01-1.75-1.75V4.753zm1.75-.25a.25.25 0 00-.25.25V6.25c0 .138.112.25.25.25h1.5a.25.25 0 00.25-.25V4.753a.25.25 0 00-.25-.25h-1.5zm4.746.25c0-.967.784-1.75 1.75-1.75h1.5c.967 0 1.75.783 1.75 1.75V6.25A1.75 1.75 0 0112.75 8h-1.5A1.75 1.75 0 019.5 6.25V4.753zm1.75-.25a.25.25 0 00-.25.25V6.25c0 .138.112.25.25.25h1.5a.25.25 0 00.25-.25V4.753a.25.25 0 00-.25-.25h-1.5zm6.496-1.5a1.75 1.75 0 00-1.75 1.75V6.25c0 .966.783 1.75 1.75 1.75h1.5a1.75 1.75 0 001.75-1.75V4.753a1.75 1.75 0 00-1.75-1.75h-1.5zm-.25 1.75a.25.25 0 01.25-.25h1.5a.25.25 0 01.25.25V6.25a.25.25 0 01-.25.25h-1.5a.25.25 0 01-.25-.25V4.753zM3.004 11.25c0-.966.784-1.75 1.75-1.75h1.5c.967 0 1.75.784 1.75 1.75v1.497a1.75 1.75 0 01-1.75 1.75h-1.5a1.75 1.75 0 01-1.75-1.75v-1.496zm1.75-.25a.25.25 0 00-.25.25v1.497c0 .138.112.25.25.25h1.5a.25.25 0 00.25-.25v-1.496a.25.25 0 00-.25-.25h-1.5zm6.496-1.5a1.75 1.75 0 00-1.75 1.75v1.497c0 .967.784 1.75 1.75 1.75h1.5a1.75 1.75 0 001.75-1.75v-1.496a1.75 1.75 0 00-1.75-1.75h-1.5zm-.25 1.75a.25.25 0 01.25-.25h1.5a.25.25 0 01.25.25v1.497a.25.25 0 01-.25.25h-1.5a.25.25 0 01-.25-.25v-1.496zm4.996 0c0-.966.783-1.75 1.75-1.75h1.5c.966 0 1.75.784 1.75 1.75v1.497a1.75 1.75 0 01-1.75 1.75h-1.5a1.75 1.75 0 01-1.75-1.75v-1.496zm1.75-.25a.25.25 0 00-.25.25v1.497c0 .138.112.25.25.25h1.5a.25.25 0 00.25-.25v-1.496a.25.25 0 00-.25-.25h-1.5zM4.754 16a1.75 1.75 0 00-1.75 1.75v1.497c0 .967.784 1.75 1.75 1.75h1.5a1.75 1.75 0 001.75-1.75V17.75A1.75 1.75 0 006.254 16h-1.5zm-.25 1.75a.25.25 0 01.25-.25h1.5a.25.25 0 01.25.25v1.497a.25.25 0 01-.25.25h-1.5a.25.25 0 01-.25-.25V17.75zm4.996 0c0-.966.784-1.75 1.75-1.75h1.5c.967 0 1.75.784 1.75 1.75v1.497a1.75 1.75 0 01-1.75 1.75h-1.5a1.75 1.75 0 01-1.75-1.75V17.75zm1.75-.25a.25.25 0 00-.25.25v1.497c0 .138.112.25.25.25h1.5a.25.25 0 00.25-.25V17.75a.25.25 0 00-.25-.25h-1.5zm6.496-1.5a1.75 1.75 0 00-1.75 1.75v1.497c0 .967.783 1.75 1.75 1.75h1.5a1.75 1.75 0 001.75-1.75V17.75a1.75 1.75 0 00-1.75-1.75h-1.5zm-.25 1.75a.25.25 0 01.25-.25h1.5a.25.25 0 01.25.25v1.497a.25.25 0 01-.25.25h-1.5a.25.25 0 01-.25-.25V17.75z" fill="currentColor"/></svg>