<svg width="24" height="24" viewBox="0 0 24 24" fill="none" xmlns="http://www.w3.org/2000/svg"><path fill-rule="evenodd" clip-rule="evenodd" d="M10.793 6.455a2.75 2.75 0 011.945-3.368l6.761-1.811a.75.75 0 01.916.928L19.6 5.093l2.151 2.094a.75.75 0 01-.329 1.261l-7.973 2.137.192.739a2.175 2.175 0 011.582 1.747 2.17 2.17 0 01-.08 1.023c-.145.418-.297.821-.463 1.208l1.047 4.009a.75.75 0 01-1.452.378l-.659-2.524a6.18 6.18 0 01-1.865 1.608v2.547a.75.75 0 11-1.5 0v-3a.75.75 0 01.422-.674c1.666-.81 2.36-2.06 3.05-4.034a.67.67 0 00-.63-.862.67.67 0 00-.644.52l-.004.016c-.254 1.017-.737 1.85-1.528 2.456-.777.595-1.783.918-2.991 1.056-.963.11-1.735.568-2.278 1.308-.552.751-.897 1.834-.897 3.214a.75.75 0 11-1.5 0c0-1.62.405-3.036 1.188-4.102.791-1.077 1.94-1.753 3.316-1.91 1.055-.121 1.765-.386 2.25-.757.469-.359.794-.869.984-1.624a2.17 2.17 0 011.143-1.448l-.322-1.234-1.016-3.79zm2.271 2.68l6.694-1.794-1.525-1.485a.75.75 0 01-.2-.741l.58-2.049-5.487 1.47a1.25 1.25 0 00-.884 1.531l.822 3.068zM6.75 9.25a2 2 0 100 4 2 2 0 000-4zm-3.5 2a3.5 3.5 0 117 0 3.5 3.5 0 01-7 0z" fill="currentColor"/></svg>