<svg width="12" height="10" viewBox="0 0 12 10" fill="none" xmlns="http://www.w3.org/2000/svg">
<path fill-rule="evenodd" clip-rule="evenodd" d="M5.79289 0.292893C6.18342 -0.0976311 6.81658 -0.0976311 7.20711 0.292893L11.9142 5L7.20711 9.70711C6.81658 10.0976 6.18342 10.0976 5.79289 9.70711C5.40237 9.31658 5.40237 8.68342 5.79289 8.29289L8.08579 6H4C2.89543 6 2 6.89543 2 8V9C2 9.55229 1.55228 10 1 10C0.447715 10 0 9.55229 0 9V8C0 5.79086 1.79086 4 4 4H8.08579L5.79289 1.70711C5.40237 1.31658 5.40237 0.683417 5.79289 0.292893Z" fill="#858585"/>
</svg>
