<svg width="10" height="8" viewBox="0 0 10 8" fill="none" xmlns="http://www.w3.org/2000/svg">
<path d="M0 1C0 0.447715 0.447715 0 1 0H9C9.55228 0 10 0.447715 10 1C10 1.55228 9.55229 2 9 2H1C0.447716 2 0 1.55228 0 1Z" fill="#858585"/>
<path d="M0 4C0 3.44772 0.447715 3 1 3H9C9.55228 3 10 3.44772 10 4C10 4.55228 9.55229 5 9 5H1C0.447716 5 0 4.55228 0 4Z" fill="#858585"/>
<path d="M1 6C0.447715 6 0 6.44772 0 7C0 7.55228 0.447715 8 1 8H6C6.55228 8 7 7.55228 7 7C7 6.44772 6.55228 6 6 6H1Z" fill="#858585"/>
</svg>
