<svg width="14" height="14" fill="none" xmlns="http://www.w3.org/2000/svg" viewBox="0 0 14 14"><path d="M0 1a1 1 0 011-1h2a1 1 0 011 1v2a1 1 0 01-1 1H1a1 1 0 01-1-1V1zm5 0a1 1 0 011-1h2a1 1 0 011 1v2a1 1 0 01-1 1H6a1 1 0 01-1-1V1zM1 5a1 1 0 00-1 1v2a1 1 0 001 1h2a1 1 0 001-1V6a1 1 0 00-1-1H1zm4 1a1 1 0 011-1h2a1 1 0 011 1v2a1 1 0 01-1 1H6a1 1 0 01-1-1V6zm6-6a1 1 0 00-1 1v2a1 1 0 001 1h2a1 1 0 001-1V1a1 1 0 00-1-1h-2zm-1 6a1 1 0 011-1h2a1 1 0 011 1v2a1 1 0 01-1 1h-2a1 1 0 01-1-1V6zm1 4a1 1 0 00-1 1v2a1 1 0 001 1h2a1 1 0 001-1v-2a1 1 0 00-1-1h-2zm-6 1a1 1 0 011-1h2a1 1 0 011 1v2a1 1 0 01-1 1H6a1 1 0 01-1-1v-2zm-4-1a1 1 0 00-1 1v2a1 1 0 001 1h2a1 1 0 001-1v-2a1 1 0 00-1-1H1z" fill="currentColor"></path></svg>