<svg width="12" height="12" viewBox="0 0 12 12" fill="none" xmlns="http://www.w3.org/2000/svg">
<path fill-rule="evenodd" clip-rule="evenodd" d="M2.66667 0C1.19391 0 0 1.19391 0 2.66667V2.72619V9.27381V9.33333C0 10.8061 1.19391 12 2.66667 12H2.72619H9.27381H9.33333C10.8061 12 12 10.8061 12 9.33333V9.27381V6.66667V6.65476C12 6.23397 11.6589 5.89286 11.2381 5.89286C10.8173 5.89286 10.4762 6.23397 10.4762 6.65476V9.27381C10.4762 9.93787 9.93787 10.4762 9.27381 10.4762H2.72619C2.06213 10.4762 1.52381 9.93787 1.52381 9.27381V2.72619C1.52381 2.06213 2.06213 1.52381 2.72619 1.52381H5.34524C5.76603 1.52381 6.10714 1.18269 6.10714 0.761905C6.10714 0.341116 5.76603 0 5.34524 0H5.33333H2.72619H2.66667ZM10.4039 10.1282C10.3251 10.2323 10.2323 10.3251 10.1282 10.4039C10.233 10.326 10.326 10.233 10.4039 10.1282ZM1.87173 10.4039C1.7677 10.3251 1.6749 10.2323 1.59612 10.1283C1.67404 10.233 1.76697 10.326 1.87173 10.4039ZM1.87169 1.59614C1.76696 1.67405 1.67405 1.76696 1.59614 1.8717C1.67491 1.7677 1.7677 1.67491 1.87169 1.59614ZM12 4V4.03571C12 4.4565 11.6589 4.79762 11.2381 4.79762C10.8173 4.79762 10.4762 4.4565 10.4762 4.03571V2.60131L4.90184 8.17565C4.6043 8.4732 4.12189 8.4732 3.82435 8.17565C3.5268 7.87811 3.5268 7.3957 3.82435 7.09816L9.39869 1.52381H7.96429C7.5435 1.52381 7.20238 1.18269 7.20238 0.761905C7.20238 0.341116 7.5435 0 7.96429 0H8H11.2381H11.3333C11.7015 0 12 0.298477 12 0.666667V0.761905V4Z" fill="#858585"/>
</svg>
