<svg width="18" height="18" viewBox="0 0 18 18" fill="none" xmlns="http://www.w3.org/2000/svg">
<mask id="path-1-outside-1" maskUnits="userSpaceOnUse" x="0" y="0.209991" width="18" height="18" fill="black">
<rect fill="white" y="0.209991" width="18" height="18"/>
<path fill-rule="evenodd" clip-rule="evenodd" d="M14.5905 14.4643L15.6388 15.8412C15.8411 16.0982 15.933 16.3001 15.933 16.3919C15.933 16.5571 15.8779 16.6673 15.7859 16.7407C15.694 16.8141 15.4917 16.8876 15.2158 16.9426C13.6104 17.267 12.0527 16.0248 12.0527 16.0248C11.0596 16.3368 10.0481 16.4837 8.98146 16.4837C6.75621 16.4837 4.93556 15.8962 3.53788 14.703C2.58158 13.8952 1.88274 12.8856 1.44137 11.6739C1.14712 10.8478 1 9.96667 1 9.03042C1 7.48837 1.3862 6.09317 2.1586 4.82648C2.98617 3.48636 4.14477 2.5134 5.616 1.88923C6.71943 1.44864 7.95159 1.20999 9.31249 1.20999C11.3354 1.20999 13.0274 1.72401 14.3515 2.77041C15.3813 3.57815 16.1353 4.60619 16.5767 5.87288C16.8526 6.66226 16.9997 7.52508 16.9997 8.44297C17.0181 10.8478 16.2089 12.8672 14.5905 14.4643ZM10.9776 5.06895C10.2549 5.06895 9.52777 5.52208 9.03685 6.18203C8.54592 5.52208 7.81875 5.06895 7.09613 5.06895C5.80994 5.06895 4.76727 6.11162 4.76727 7.39781C4.76727 9.47594 6.11694 11.2557 8.75264 12.7299C8.92924 12.8287 9.14446 12.8287 9.32106 12.7299C11.9568 11.2557 13.3064 9.47594 13.3064 7.39781C13.3064 6.11162 12.2638 5.06895 10.9776 5.06895Z"/>
</mask>
<path fill-rule="evenodd" clip-rule="evenodd" d="M14.5905 14.4643L15.6388 15.8412C15.8411 16.0982 15.933 16.3001 15.933 16.3919C15.933 16.5571 15.8779 16.6673 15.7859 16.7407C15.694 16.8141 15.4917 16.8876 15.2158 16.9426C13.6104 17.267 12.0527 16.0248 12.0527 16.0248C11.0596 16.3368 10.0481 16.4837 8.98146 16.4837C6.75621 16.4837 4.93556 15.8962 3.53788 14.703C2.58158 13.8952 1.88274 12.8856 1.44137 11.6739C1.14712 10.8478 1 9.96667 1 9.03042C1 7.48837 1.3862 6.09317 2.1586 4.82648C2.98617 3.48636 4.14477 2.5134 5.616 1.88923C6.71943 1.44864 7.95159 1.20999 9.31249 1.20999C11.3354 1.20999 13.0274 1.72401 14.3515 2.77041C15.3813 3.57815 16.1353 4.60619 16.5767 5.87288C16.8526 6.66226 16.9997 7.52508 16.9997 8.44297C17.0181 10.8478 16.2089 12.8672 14.5905 14.4643ZM10.9776 5.06895C10.2549 5.06895 9.52777 5.52208 9.03685 6.18203C8.54592 5.52208 7.81875 5.06895 7.09613 5.06895C5.80994 5.06895 4.76727 6.11162 4.76727 7.39781C4.76727 9.47594 6.11694 11.2557 8.75264 12.7299C8.92924 12.8287 9.14446 12.8287 9.32106 12.7299C11.9568 11.2557 13.3064 9.47594 13.3064 7.39781C13.3064 6.11162 12.2638 5.06895 10.9776 5.06895Z" fill="url(#paint0_linear)"/>
<path d="M15.6388 15.8412L14.8432 16.4469L14.848 16.4533L14.853 16.4597L15.6388 15.8412ZM14.5905 14.4643L13.8881 13.7526L13.2621 14.3703L13.7949 15.0701L14.5905 14.4643ZM15.7859 16.7407L16.4099 17.5221L16.41 17.5221L15.7859 16.7407ZM15.2158 16.9426L15.02 15.962L15.0178 15.9624L15.2158 16.9426ZM12.0527 16.0248L12.6761 15.2429L12.2603 14.9113L11.7529 15.0708L12.0527 16.0248ZM3.53788 14.703L4.18719 13.9424L4.18316 13.939L3.53788 14.703ZM1.44137 11.6739L0.49932 12.0095L0.501772 12.0162L1.44137 11.6739ZM2.1586 4.82648L1.30774 4.30105L1.30481 4.30586L2.1586 4.82648ZM5.616 1.88923L5.24518 0.960527L5.23527 0.964483L5.22545 0.96865L5.616 1.88923ZM14.3515 2.77041L13.7314 3.55499L13.7343 3.55726L14.3515 2.77041ZM16.5767 5.87288L15.6324 6.20192L15.6327 6.20277L16.5767 5.87288ZM16.9997 8.44297H15.9997L15.9997 8.45062L16.9997 8.44297ZM9.03685 6.18203L8.2345 6.77889L9.03685 7.85749L9.8392 6.77889L9.03685 6.18203ZM8.75264 12.7299L9.24079 11.8571L9.24079 11.8571L8.75264 12.7299ZM9.32106 12.7299L8.8329 11.8571L8.8329 11.8571L9.32106 12.7299ZM16.4344 15.2354L15.3862 13.8586L13.7949 15.0701L14.8432 16.4469L16.4344 15.2354ZM16.933 16.3919C16.933 16.0954 16.8136 15.8429 16.7515 15.722C16.668 15.5593 16.5567 15.3905 16.4246 15.2227L14.853 16.4597C14.8872 16.5031 14.9138 16.5406 14.934 16.5712C14.9543 16.6023 14.9663 16.6238 14.9721 16.635C14.9787 16.6479 14.9738 16.6408 14.9655 16.6154C14.9611 16.6022 14.9539 16.5782 14.9475 16.5452C14.9413 16.5138 14.933 16.4607 14.933 16.3919H16.933ZM16.41 17.5221C16.7767 17.2293 16.933 16.8103 16.933 16.3919H14.933C14.933 16.3633 14.938 16.2902 14.9789 16.1974C15.0219 16.0998 15.0882 16.0182 15.1619 15.9593L16.41 17.5221ZM15.4116 17.9233C15.5841 17.8888 15.7525 17.8451 15.9056 17.7905C16.0411 17.7422 16.2361 17.6609 16.4099 17.5221L15.1619 15.9593C15.1878 15.9386 15.2091 15.9247 15.2226 15.9163C15.2364 15.9078 15.2461 15.9028 15.2503 15.9007C15.2577 15.897 15.2536 15.8997 15.234 15.9066C15.1941 15.9209 15.1234 15.9414 15.02 15.962L15.4116 17.9233ZM12.0527 16.0248C11.4292 16.8066 11.4294 16.8068 11.4297 16.807C11.4298 16.8071 11.43 16.8073 11.4302 16.8074C11.4306 16.8077 11.431 16.808 11.4314 16.8084C11.4322 16.809 11.4332 16.8098 11.4342 16.8106C11.4363 16.8122 11.4388 16.8142 11.4416 16.8164C11.4473 16.8208 11.4546 16.8265 11.4633 16.8332C11.4808 16.8465 11.5044 16.8643 11.5337 16.8856C11.5921 16.9282 11.6738 16.9856 11.7756 17.0519C11.978 17.1836 12.2665 17.3547 12.6161 17.5147C13.2943 17.8249 14.3147 18.1449 15.4138 17.9228L15.0178 15.9624C14.5115 16.0647 13.9504 15.9257 13.4483 15.696C13.2078 15.586 13.0065 15.4667 12.8667 15.3757C12.7974 15.3306 12.7448 15.2934 12.7118 15.2694C12.6953 15.2574 12.6839 15.2487 12.6778 15.2441C12.6747 15.2418 12.673 15.2405 12.6728 15.2402C12.6726 15.2401 12.6728 15.2403 12.6734 15.2407C12.6737 15.2409 12.674 15.2412 12.6745 15.2416C12.6747 15.2418 12.675 15.242 12.6752 15.2422C12.6754 15.2423 12.6756 15.2425 12.6757 15.2425C12.6759 15.2427 12.6761 15.2429 12.0527 16.0248ZM8.98146 17.4837C10.143 17.4837 11.2561 17.3233 12.3525 16.9788L11.7529 15.0708C10.863 15.3504 9.95317 15.4837 8.98146 15.4837V17.4837ZM2.88858 15.4635C4.50642 16.8447 6.57525 17.4837 8.98146 17.4837V15.4837C6.93717 15.4837 5.36469 14.9478 4.18718 13.9425L2.88858 15.4635ZM0.501772 12.0162C1.00094 13.3865 1.79899 14.5432 2.89261 15.4669L4.18316 13.939C3.36417 13.2473 2.76454 12.3846 2.38097 11.3317L0.501772 12.0162ZM0 9.03042C0 10.0732 0.164208 11.0686 0.499344 12.0095L2.3834 11.3384C2.13004 10.6271 2 9.86011 2 9.03042H0ZM1.30481 4.30586C0.433507 5.73475 0 7.3111 0 9.03042H2C2 7.66564 2.33889 6.45159 3.01239 5.3471L1.30481 4.30586ZM5.22545 0.96865C3.57216 1.67005 2.24894 2.77696 1.30776 4.30106L3.00944 5.35191C3.7234 4.19576 4.71738 3.35674 6.00656 2.80981L5.22545 0.96865ZM9.31249 0.209991C7.8326 0.209991 6.47379 0.469954 5.24518 0.960527L5.98683 2.81793C6.96507 2.42733 8.07058 2.20999 9.31249 2.20999V0.209991ZM14.9715 1.98582C13.4336 0.770488 11.5079 0.209991 9.31249 0.209991V2.20999C11.163 2.20999 12.6211 2.67753 13.7314 3.55499L14.9715 1.98582ZM17.521 5.54384C17.0147 4.09068 16.1443 2.90566 14.9686 1.98356L13.7343 3.55726C14.6184 4.25064 15.256 5.1217 15.6324 6.20192L17.521 5.54384ZM17.9997 8.44297C17.9997 7.41757 17.8352 6.44286 17.5207 5.54298L15.6327 6.20277C15.8699 6.88166 15.9997 7.63259 15.9997 8.44297H17.9997ZM15.293 15.1761C17.1153 13.3777 18.02 11.0936 17.9997 8.43533L15.9997 8.45062C16.0162 10.6021 15.3026 12.3567 13.8881 13.7526L15.293 15.1761ZM9.8392 6.77889C10.2033 6.28947 10.662 6.06895 10.9776 6.06895V4.06895C9.84785 4.06895 8.85228 4.75469 8.2345 5.58518L9.8392 6.77889ZM7.09613 6.06895C7.41165 6.06895 7.87043 6.28947 8.2345 6.77889L9.8392 5.58518C9.22142 4.75469 8.22585 4.06895 7.09613 4.06895V6.06895ZM5.76727 7.39781C5.76727 6.6639 6.36222 6.06895 7.09613 6.06895V4.06895C5.25765 4.06895 3.76727 5.55933 3.76727 7.39781H5.76727ZM9.24079 11.8571C6.75405 10.4662 5.76727 8.95608 5.76727 7.39781H3.76727C3.76727 9.99581 5.47983 12.0451 8.26448 13.6026L9.24079 11.8571ZM8.8329 11.8571C8.95963 11.7862 9.11407 11.7862 9.24079 11.8571L8.26448 13.6026C8.74441 13.8711 9.32929 13.8711 9.80921 13.6026L8.8329 11.8571ZM12.3064 7.39781C12.3064 8.95608 11.3196 10.4662 8.8329 11.8571L9.80921 13.6026C12.5939 12.0451 14.3064 9.99581 14.3064 7.39781H12.3064ZM10.9776 6.06895C11.7115 6.06895 12.3064 6.6639 12.3064 7.39781H14.3064C14.3064 5.55933 12.816 4.06895 10.9776 4.06895V6.06895Z" fill="white" mask="url(#path-1-outside-1)"/>
<path fill-rule="evenodd" clip-rule="evenodd" d="M9.03691 6.18202C9.52783 5.52207 10.255 5.06894 10.9776 5.06894C12.2638 5.06894 13.3065 6.1116 13.3065 7.3978C13.3065 9.47593 11.9568 11.2557 9.32112 12.7299C9.14452 12.8286 8.9293 12.8286 8.7527 12.7299C6.117 11.2557 4.76733 9.47593 4.76733 7.3978C4.76733 6.1116 5.81 5.06894 7.09619 5.06894C7.81881 5.06894 8.54599 5.52207 9.03691 6.18202Z" fill="white"/>
<defs>
<linearGradient id="paint0_linear" x1="1" y1="9.10332" x2="17" y2="9.10332" gradientUnits="userSpaceOnUse">
<stop stop-color="#D1FF1A"/>
<stop offset="1" stop-color="#1AD1FF"/>
</linearGradient>
</defs>
</svg>
