<svg width="12" height="12" viewBox="0 0 12 12" fill="none" xmlns="http://www.w3.org/2000/svg">
<path d="M2 6C3.10457 6 4 5.10457 4 4C4 2.89543 3.10457 2 2 2C0.89543 2 0 2.89543 0 4C0 5.10457 0.89543 6 2 6Z" fill="#858585"/>
<path d="M10 6C11.1046 6 12 5.10457 12 4C12 2.89543 11.1046 2 10 2C8.89543 2 8 2.89543 8 4C8 5.10457 8.89543 6 10 6Z" fill="#858585"/>
<path d="M9.88909 8.88909C7.7412 11.037 4.2588 11.037 2.11091 8.88909C1.72039 8.49856 1.72039 7.8654 2.11091 7.47487C2.50144 7.08435 3.1346 7.08435 3.52513 7.47487C4.89196 8.84171 7.10804 8.84171 8.47487 7.47487C8.8654 7.08435 9.49856 7.08435 9.88909 7.47487C10.2796 7.8654 10.2796 8.49856 9.88909 8.88909Z" fill="#858585"/>
</svg>
