<svg width="14" height="12" viewBox="0 0 14 12" fill="none" xmlns="http://www.w3.org/2000/svg">
<path fill-rule="evenodd" clip-rule="evenodd" d="M7 8.5C8.38071 8.5 9.5 7.38071 9.5 6C9.5 4.61929 8.38071 3.5 7 3.5C5.61929 3.5 4.5 4.61929 4.5 6C4.5 7.38071 5.61929 8.5 7 8.5ZM8.5 6C8.5 6.82843 7.82843 7.5 7 7.5C6.17157 7.5 5.5 6.82843 5.5 6C5.5 5.17157 6.17157 4.5 7 4.5C7.82843 4.5 8.5 5.17157 8.5 6Z" fill="#858585"/>
<path fill-rule="evenodd" clip-rule="evenodd" d="M7 1C4.33333 1 2 2.66667 0 6C2 9.33333 4.33333 11 7 11C9.66667 11 12 9.33333 14 6C12 2.66667 9.66667 1 7 1ZM12.8221 6C11.0709 8.70751 9.13781 10 7 10C4.86219 10 2.92909 8.70751 1.17786 6C2.92909 3.29249 4.86219 2 7 2C9.13781 2 11.0709 3.29249 12.8221 6Z" fill="#858585"/>
</svg>
