<svg width="14" height="12" viewBox="0 0 14 12" fill="none" xmlns="http://www.w3.org/2000/svg">
<path fill-rule="evenodd" clip-rule="evenodd" d="M0 6C0 6 3 1 7 1C11 1 14 6 14 6C14 6 11 11 7 11C3 11 0 6 0 6Z" fill="currentColor"/>
<path fill-rule="evenodd" clip-rule="evenodd" d="M9.5 6C9.5 7.38071 8.38071 8.5 7 8.5C5.61929 8.5 4.5 7.38071 4.5 6C4.5 4.61929 5.61929 3.5 7 3.5C8.38071 3.5 9.5 4.61929 9.5 6ZM8.5 6C8.5 6.82843 7.82843 7.5 7 7.5C6.17157 7.5 5.5 6.82843 5.5 6C5.5 5.17157 6.17157 4.5 7 4.5C7.82843 4.5 8.5 5.17157 8.5 6Z" fill="white"/>
</svg>
