<svg width="24" height="24" viewBox="0 0 24 24" fill="none" xmlns="http://www.w3.org/2000/svg">
<path d="M21 6H23C23.55 6 24 5.55 24 5C24 4.45 23.55 4 23 4H21V2C21 1.45 20.55 1 20 1C19.45 1 19 1.45 19 2V4H17C16.45 4 16 4.45 16 5C16 5.55 16.45 6 17 6H19V8C19 8.55 19.45 9 20 9C20.55 9 21 8.55 21 8V6Z" fill="#858585"/>
<path fill-rule="evenodd" clip-rule="evenodd" d="M18 8C18 9.10457 18.8954 10 20 10C20.3643 10 20.7058 9.90261 21 9.73244V17C21 18.6569 19.6569 20 18 20H6C4.34315 20 3 18.6569 3 17V7C3 5.34315 4.34315 4 6 4H15.2676C15.0974 4.29417 15 4.63571 15 5C15 6.10457 15.8954 7 17 7H18V8ZM11 15.51L8.9 12.98C8.69 12.73 8.31 12.74 8.12 13L5.63 16.2C5.37 16.53 5.6 17.01 6.02 17.01H18.01C18.42 17.01 18.66 16.54 18.41 16.21L14.9 11.53C14.7 11.26 14.3 11.26 14.1 11.52L11 15.51Z" fill="#858585"/>
</svg>
