<svg width="24" height="24" viewBox="0 0 24 24" fill="none" xmlns="http://www.w3.org/2000/svg">
<path d="M19 7H21C21.55 7 22 6.55 22 6C22 5.45 21.55 5 21 5H19V3C19 2.45 18.55 2 18 2C17.45 2 17 2.45 17 3V5H15C14.45 5 14 5.45 14 6C14 6.55 14.45 7 15 7H17V9C17 9.55 17.45 10 18 10C18.55 10 19 9.55 19 9V7Z" fill="#858585"/>
<path fill-rule="evenodd" clip-rule="evenodd" d="M9.10484 4C9.89817 4 10.6159 4.49111 10.8993 5.22778L16.1504 19.0733C16.4904 19.9989 15.8104 21 14.8093 21H14.7904C14.1859 21 13.6571 20.6222 13.4493 20.0744L12.0354 16H6.18184L4.76039 20.0556C4.55262 20.6222 4.02373 21 3.41928 21C2.41817 21 1.73817 19.9989 2.09706 19.0733L7.32928 5.22778C7.59373 4.49111 8.3115 4 9.10484 4ZM9.12327 7.60776L11.3414 14H6.88283L9.12327 7.60776Z" fill="#858585"/>
</svg>
