<svg width="24" height="24" viewBox="0 0 24 24" fill="none" xmlns="http://www.w3.org/2000/svg">
<path d="M4 6C2.89543 6 2 6.89543 2 8V16C2 17.1046 2.89543 18 4 18H14C15.1046 18 16 17.1046 16 16V8C16 6.89543 15.1046 6 14 6H4Z" fill="#858585"/>
<path d="M18.2929 9.70711L20.2929 7.70711C20.9229 7.07714 22 7.52331 22 8.41421V15.5858C22 16.4767 20.9229 16.9229 20.2929 16.2929L18.2929 14.2929C18.1054 14.1054 18 13.851 18 13.5858V10.4142C18 10.149 18.1054 9.89464 18.2929 9.70711Z" fill="#858585"/>
</svg>
