<svg width="24" height="24" viewBox="0 0 24 24" fill="none" xmlns="http://www.w3.org/2000/svg">
<path d="M8.5 13.5C8.5 11.567 10.067 10 12 10C13.933 10 15.5 11.567 15.5 13.5C15.5 15.433 13.933 17 12 17C10.067 17 8.5 15.433 8.5 13.5Z" fill="#858585"/>
<path fill-rule="evenodd" clip-rule="evenodd" d="M9.29456 3.55723C9.66701 3.19967 10.1633 3 10.6796 3H13.4216C13.952 3 14.4607 3.21071 14.8358 3.58579L17.25 6H20C21.1046 6 22 6.89543 22 8V19C22 20.1046 21.1046 21 20 21H4C2.89543 21 2 20.1046 2 19V8C2 6.89543 2.89543 6 4 6H6.75L9.29456 3.55723ZM12 8C8.96243 8 6.5 10.4624 6.5 13.5C6.5 16.5376 8.96243 19 12 19C15.0376 19 17.5 16.5376 17.5 13.5C17.5 10.4624 15.0376 8 12 8Z" fill="#858585"/>
</svg>
