<svg width="24" height="24" viewBox="0 0 24 24" fill="none" xmlns="http://www.w3.org/2000/svg">
<path d="M8.41421 5.58579C7.63316 4.80474 6.36684 4.80474 5.58579 5.58579C4.80474 6.36684 4.80474 7.63316 5.58579 8.41421L9.17157 12L5.58579 15.5858C4.80474 16.3668 4.80474 17.6332 5.58579 18.4142C6.36684 19.1953 7.63316 19.1953 8.41421 18.4142L12 14.8284L15.5858 18.4142C16.3668 19.1953 17.6332 19.1953 18.4142 18.4142C19.1953 17.6332 19.1953 16.3668 18.4142 15.5858L14.8284 12L18.4142 8.41421C19.1953 7.63316 19.1953 6.36684 18.4142 5.58579C17.6332 4.80474 16.3668 4.80474 15.5858 5.58579L12 9.17157L8.41421 5.58579Z" fill="#858585"/>
</svg>
