<svg width="24" height="24" viewBox="0 0 24 24" fill="none" xmlns="http://www.w3.org/2000/svg">
<path d="M16.8787 5L14.4393 7.43934L12.8536 5.85355C12.7598 5.75979 12.6326 5.70711 12.5 5.70711C12.2239 5.70711 12 5.93096 12 6.20711V12H6.20711C6.0745 12 5.94732 12.0527 5.85355 12.1464C5.65829 12.3417 5.65829 12.6583 5.85355 12.8536L7.43934 14.4393L5 16.8787L7.12132 19L9.56066 16.5607L11.1464 18.1464C11.2402 18.2402 11.3674 18.2929 11.5 18.2929C11.7761 18.2929 12 18.069 12 17.7929V12H17.7929C17.9255 12 18.0527 11.9473 18.1464 11.8536C18.3417 11.6583 18.3417 11.3417 18.1464 11.1464L16.5607 9.56066L19 7.12132L16.8787 5Z" fill="#858585"/>
</svg>
