<svg width="24" height="24" viewBox="0 0 24 24" fill="none" xmlns="http://www.w3.org/2000/svg">
<path fill-rule="evenodd" clip-rule="evenodd" d="M4.64791 17.1922L4.1965 20.8035L8.44921 20.2719C9.56021 20.7494 10.7637 21 12 21C16.9706 21 21 16.9706 21 12C21 7.02944 16.9706 3 12 3C7.02944 3 3 7.02944 3 12C3 13.8892 3.5861 15.6914 4.64791 17.1922ZM12 19C10.8377 19 9.74151 18.7167 8.77679 18.2154L6.5 18.5L6.73575 16.614C5.6551 15.382 5 13.7675 5 12C5 8.13401 8.13401 5 12 5C15.866 5 19 8.13401 19 12C19 15.866 15.866 19 12 19Z" fill="#858585"/>
</svg>
