<svg width="24" height="24" viewBox="0 0 24 24" fill="none" xmlns="http://www.w3.org/2000/svg">
<path d="M12 15C14.7614 15 17 12.7614 17 10C17 7.23858 14.7614 5 12 5C9.23858 5 7 7.23858 7 10C7 12.7614 9.23858 15 12 15Z" fill="#858585"/>
<path fill-rule="evenodd" clip-rule="evenodd" d="M12 2C7.58172 2 4 5.58172 4 10C4 12.0289 4.75527 13.8814 6 15.2916V22L12 20L18 22V15.2916C19.2447 13.8814 20 12.0289 20 10C20 5.58172 16.4183 2 12 2ZM12 16C15.3137 16 18 13.3137 18 10C18 6.68629 15.3137 4 12 4C8.68629 4 6 6.68629 6 10C6 13.3137 8.68629 16 12 16Z" fill="#858585"/>
</svg>
