<svg width="24" height="24" viewBox="0 0 24 24" fill="none" xmlns="http://www.w3.org/2000/svg">
<path fill-rule="evenodd" clip-rule="evenodd" d="M6 5C6 3.34315 7.34315 2 9 2H19C20.6569 2 22 3.34315 22 5V15C22 16.6569 20.6569 18 19 18H9C7.34315 18 6 16.6569 6 15V5ZM18 21C18 21.5523 17.5523 22 17 22H6C3.79086 22 2 20.2091 2 18V8C2 7.44771 2.44771 7 3 7C3.55229 7 4 7.44771 4 8V18C4 19.1046 4.89543 20 6 20H17C17.5523 20 18 20.4477 18 21ZM15 11H18C18.55 11 19 10.55 19 10C19 9.45 18.55 9 18 9H15V6C15 5.45 14.55 5 14 5C13.45 5 13 5.45 13 6V9H10C9.45 9 9 9.45 9 10C9 10.55 9.45 11 10 11H13V14C13 14.55 13.45 15 14 15C14.55 15 15 14.55 15 14V11Z" fill="#858585"/>
</svg>
