<svg width="24" height="24" fill="none" xmlns="http://www.w3.org/2000/svg" viewBox="0 0 24 24"><path d="M8 2h8a6 6 0 016 6v8a6 6 0 01-6 6H8a6 6 0 01-6-6V8a6 6 0 016-6z" fill="currentColor"></path><path fill-rule="evenodd" clip-rule="evenodd" d="M4 8a4 4 0 014-4h8a4 4 0 014 4v8a4 4 0 01-4 4H8a4 4 0 01-4-4V8zm6 2.5a1.5 1.5 0 11-3 0 1.5 1.5 0 013 0zm5.5 1.5a1.5 1.5 0 100-3 1.5 1.5 0 000 3zm.39 3.89a5.5 5.5 0 01-7.78 0 1 1 0 111.415-1.415 3.5 3.5 0 004.95 0 1 1 0 111.414 1.414z" fill="#fff"></path></svg>