<svg width="24" height="24" viewBox="0 0 24 24" fill="none" xmlns="http://www.w3.org/2000/svg">
<path d="M14.1213 12L16.5607 9.56066L18.1464 11.1464C18.2402 11.2402 18.3674 11.2929 18.5 11.2929C18.7761 11.2929 19 11.069 19 10.7929V5H13.2071C13.0745 5 12.9473 5.05268 12.8536 5.14645C12.6583 5.34171 12.6583 5.65829 12.8536 5.85355L14.4393 7.43934L12 9.87868L14.1213 12Z" fill="#858585"/>
<path d="M9.87868 12L7.43934 14.4393L5.85355 12.8536C5.75979 12.7598 5.63261 12.7071 5.5 12.7071C5.22386 12.7071 5 12.931 5 13.2071V19H10.7929C10.9255 19 11.0527 18.9473 11.1464 18.8536C11.3417 18.6583 11.3417 18.3417 11.1464 18.1464L9.56066 16.5607L12 14.1213L9.87868 12Z" fill="#858585"/>
</svg>
