<svg width="24" height="24" viewBox="0 0 24 24" fill="none" xmlns="http://www.w3.org/2000/svg">
<path fill-rule="evenodd" clip-rule="evenodd" d="M16.6787 16.6787C19.7583 15.7453 22 12.8844 22 9.5C22 5.35786 18.6421 2 14.5 2C11.1156 2 8.25472 4.24174 7.32133 7.32137C4.24172 8.25478 2 11.1156 2 14.5C2 18.6422 5.35786 22 9.5 22C12.8844 22 15.7453 19.7583 16.6787 16.6787ZM20 9.5C20 12.5376 17.5376 15 14.5 15C11.4624 15 9 12.5376 9 9.5C9 6.46243 11.4624 4 14.5 4C17.5376 4 20 6.46243 20 9.5Z" fill="#858585"/>
</svg>
