<svg width="24" height="24" viewBox="0 0 24 24" fill="none" xmlns="http://www.w3.org/2000/svg">
<path d="M12 3C12.5523 3 13 3.44772 13 4V10.2679L18.4282 7.13397C18.9065 6.85783 19.5181 7.02171 19.7943 7.5C20.0704 7.97829 19.9065 8.58988 19.4282 8.86603L14 12L19.4282 15.134C19.9065 15.4101 20.0704 16.0217 19.7943 16.5C19.5181 16.9783 18.9065 17.1422 18.4282 16.866L13 13.7321V20C13 20.5523 12.5523 21 12 21C11.4478 21 11 20.5523 11 20V13.732L5.57182 16.866C5.09353 17.1422 4.48194 16.9783 4.2058 16.5C3.92965 16.0217 4.09353 15.4101 4.57182 15.134L10 12L4.57182 8.86603C4.09353 8.58988 3.92965 7.97829 4.2058 7.5C4.48194 7.02171 5.09353 6.85783 5.57182 7.13397L11 10.268V4C11 3.44772 11.4478 3 12 3Z" fill="#858585"/>
</svg>
