<svg width="24" height="24" viewBox="0 0 24 24" fill="none" xmlns="http://www.w3.org/2000/svg">
<path fill-rule="evenodd" clip-rule="evenodd" d="M11 3.00006C11 2.57286 10.7286 2.19283 10.3245 2.05419C9.92046 1.91554 9.47293 2.0489 9.21065 2.38612L2.21065 11.3861C1.92978 11.7472 1.92978 12.2529 2.21065 12.614L9.21065 21.614C9.47293 21.9512 9.92046 22.0846 10.3245 21.9459C10.7286 21.8073 11 21.4273 11 21.0001V16.0681L18.6489 18.9364C18.956 19.0515 19.3 19.0088 19.5696 18.822C19.8392 18.6352 20 18.328 20 18.0001V6.00006C20 5.67208 19.8392 5.36495 19.5696 5.17813C19.3 4.99132 18.956 4.94857 18.6489 5.06373L11 7.93206V3.00006ZM18 16.5571L5.848 12.0001L18 7.44306V16.5571Z" fill="#858585"/>
</svg>
