<svg width="24" height="24" viewBox="0 0 24 24" fill="none" xmlns="http://www.w3.org/2000/svg">
<path d="M7.89052 1.55005L6.09998 2.4447L16.1094 22.45L17.9 21.5554L7.89052 1.55005Z" fill="#858585"/>
<path d="M1 12C2.70931 9.09936 4.57355 6.98751 6.59274 5.66444L8.40693 9.29036C7.83762 10.0441 7.5 10.9826 7.5 12C7.5 14.4853 9.51472 16.5 12 16.5L12.0142 16.5L13.6905 19.8503C13.1368 19.9501 12.5733 20 12 20C7.80952 20 4.14286 17.3333 1 12Z" fill="#858585"/>
<path d="M9.5 12C9.5 11.8478 9.51359 11.6989 9.53963 11.5542L10.8817 14.2365C10.0624 13.8261 9.5 12.9787 9.5 12Z" fill="#858585"/>
<path d="M17.4072 18.3356L15.593 14.7097C16.1624 13.956 16.5 13.0174 16.5 12C16.5 9.51472 14.4853 7.5 12 7.5L11.9857 7.50002L10.3094 4.14975C10.8631 4.04992 11.4267 4 12 4C16.1905 4 19.8571 6.66667 23 12C21.2907 14.9007 19.4264 17.0126 17.4072 18.3356Z" fill="#858585"/>
<path d="M14.4603 12.446L13.1181 9.76337C13.9375 10.1738 14.5 11.0212 14.5 12C14.5 12.1522 14.4864 12.3013 14.4603 12.446Z" fill="#858585"/>
</svg>
