<svg width="24" height="24" viewBox="0 0 24 24" fill="none" xmlns="http://www.w3.org/2000/svg">
<path fill-rule="evenodd" clip-rule="evenodd" d="M15.9993 16.9301L15.9987 18.5C15.9983 19.6043 15.1022 20.4992 13.9979 20.4992L13.9372 20.4992C13.7154 21.3622 12.9322 22 12 22C11.0681 22 10.285 21.3626 10.063 20.5L10.0021 20.5C8.89782 20.5 8.00252 19.6043 8.00208 18.5L8.00108 16.9304C5.60928 15.5473 4 12.9616 4 10C4 5.58172 7.58172 2 12 2C16.4183 2 20 5.58172 20 10C20 12.9614 18.3909 15.547 15.9993 16.9301ZM12 3.90476C8.63369 3.90476 5.90476 6.63369 5.90476 10C5.90476 13.3663 8.63369 16.0952 12 16.0952C15.3663 16.0952 18.0952 13.3663 18.0952 10C18.0952 6.63369 15.3663 3.90476 12 3.90476ZM15 13C15 13.5523 14.5523 14 14 14C13.4477 14 13 13.5523 13 13C13 12.4477 12.5523 12 12 12C11.4477 12 11 12.4477 11 13C11 13.5523 10.5523 14 10 14C9.44772 14 9 13.5523 9 13C9 11.3431 10.3431 10 12 10C13.6569 10 15 11.3431 15 13Z" fill="#858585"/>
</svg>
