<svg width="24" height="24" viewBox="0 0 24 24" fill="none" xmlns="http://www.w3.org/2000/svg">
<path d="M5 5.5C5 5.22386 5.22386 5 5.5 5H15V12.327C14.902 12.3536 14.8105 12.4104 14.7409 12.4976L12.1382 15.758L10.3926 13.7127C10.1889 13.474 9.81815 13.4798 9.622 13.7248L7.65045 16.1875C7.38838 16.5149 7.62144 17 8.04077 17H15V19H5.5C5.22386 19 5 18.7761 5 18.5V5.5Z" fill="#858585"/>
<path fill-rule="evenodd" clip-rule="evenodd" d="M5 2C3.34315 2 2 3.34315 2 5V19C2 20.6569 3.34315 22 5 22H15C16.6569 22 18 20.6569 18 19V5C18 3.34315 16.6569 2 15 2H5ZM4 5C4 4.44772 4.44772 4 5 4H15C15.5523 4 16 4.44772 16 5V19C16 19.5523 15.5523 20 15 20H5C4.44772 20 4 19.5523 4 19V5Z" fill="#858585"/>
<path opacity="0.32" d="M19 5H21C21.5523 5 22 5.44772 22 6V18C22 18.5523 21.5523 19 21 19H19V5Z" fill="#858585"/>
</svg>
