<svg width="24" height="24" viewBox="0 0 24 24" fill="none" xmlns="http://www.w3.org/2000/svg">
<path d="M12 2C9.79086 2 8 3.79086 8 6V12C8 14.2091 9.79086 16 12 16C14.2091 16 16 14.2091 16 12V6C16 3.79086 14.2091 2 12 2Z" fill="#858585"/>
<path d="M7 12C7 11.4477 6.55228 11 6 11C5.44772 11 5 11.4477 5 12C5 15.5265 7.60771 18.4439 11 18.9291V20H8.625C8.07272 20 7.625 20.4477 7.625 21C7.625 21.5523 8.07272 22 8.625 22H15.375C15.9273 22 16.375 21.5523 16.375 21C16.375 20.4477 15.9273 20 15.375 20H13V18.9291C16.3923 18.4439 19 15.5265 19 12C19 11.4477 18.5523 11 18 11C17.4477 11 17 11.4477 17 12C17 14.7614 14.7614 17 12 17C9.23858 17 7 14.7614 7 12Z" fill="#858585"/>
</svg>
