<svg width="24" height="24" viewBox="0 0 24 24" fill="none" xmlns="http://www.w3.org/2000/svg">
<path d="M18 9.25V12L19.5613 16.6838C19.5953 16.7857 19.6126 16.8925 19.6126 17C19.6126 17.5523 19.1649 18 18.6126 18H5.38745C4.83517 18 4.38745 17.5523 4.38745 17C4.38745 16.8925 4.40478 16.7857 4.43877 16.6838L6.00003 12V9.25C6.00003 5.79822 8.68632 3 12 3C15.3137 3 18 5.79822 18 9.25Z" fill="#858585"/>
<path d="M12 21C10.6938 21 9.58257 20.1652 9.17073 19H14.8293C14.4175 20.1652 13.3062 21 12 21Z" fill="#858585"/>
</svg>
