<svg width="24" height="24" viewBox="0 0 24 24" fill="none" xmlns="http://www.w3.org/2000/svg">
<path fill-rule="evenodd" clip-rule="evenodd" d="M3 7C3 4.79086 4.79086 3 7 3H11C11.5523 3 12 3.44772 12 4C12 4.55228 11.5523 5 11 5H7C5.89543 5 5 5.89543 5 7V17C5 18.1046 5.89543 19 7 19H17C18.1046 19 19 18.1046 19 17V13C19 12.4477 19.4477 12 20 12C20.5523 12 21 12.4477 21 13V17C21 19.2091 19.2091 21 17 21H7C4.79086 21 3 19.2091 3 17V7ZM15 5C14.4477 5 14 4.55228 14 4C14 3.44772 14.4477 3 15 3H20C20.5523 3 21 3.44772 21 4V9C21 9.55228 20.5523 10 20 10C19.4477 10 19 9.55228 19 9V6.41421L10.2071 15.2071C9.81658 15.5976 9.18342 15.5976 8.79289 15.2071C8.40237 14.8166 8.40237 14.1834 8.79289 13.7929L17.5858 5H15Z" fill="#858585"/>
</svg>
