<svg width="24" height="24" viewBox="0 0 24 24" fill="none" xmlns="http://www.w3.org/2000/svg">
<path fill-rule="evenodd" clip-rule="evenodd" d="M4.64494 7C5.07521 5.55426 6.41449 4.5 8 4.5C9.58551 4.5 10.9248 5.55426 11.3551 7H20C20.5523 7 21 7.44772 21 8C21 8.55228 20.5523 9 20 9H11.3551C10.9248 10.4457 9.58551 11.5 8 11.5C6.41449 11.5 5.07521 10.4457 4.64494 9H4C3.44772 9 3 8.55228 3 8C3 7.44772 3.44772 7 4 7H4.64494ZM8 9.5C8.82843 9.5 9.5 8.82843 9.5 8C9.5 7.17157 8.82843 6.5 8 6.5C7.17157 6.5 6.5 7.17157 6.5 8C6.5 8.82843 7.17157 9.5 8 9.5Z" fill="#858585"/>
<path fill-rule="evenodd" clip-rule="evenodd" d="M12.6449 15C13.0752 13.5543 14.4145 12.5 16 12.5C17.5855 12.5 18.9248 13.5543 19.3551 15H20C20.5523 15 21 15.4477 21 16C21 16.5523 20.5523 17 20 17H19.3551C18.9248 18.4457 17.5855 19.5 16 19.5C14.4145 19.5 13.0752 18.4457 12.6449 17H4C3.44772 17 3 16.5523 3 16C3 15.4477 3.44772 15 4 15H12.6449ZM17.5 16C17.5 16.8284 16.8284 17.5 16 17.5C15.1716 17.5 14.5 16.8284 14.5 16C14.5 15.1716 15.1716 14.5 16 14.5C16.8284 14.5 17.5 15.1716 17.5 16Z" fill="#858585"/>
</svg>
