<svg width="24" height="24" viewBox="0 0 24 24" fill="none" xmlns="http://www.w3.org/2000/svg">
<path fill-rule="evenodd" clip-rule="evenodd" d="M12 3C7.03 3 3 7.03 3 12C3 16.97 7.03 21 12 21C12.83 21 13.5 20.33 13.5 19.5C13.5 19.11 13.35 18.76 13.11 18.49C12.88 18.23 12.73 17.88 12.73 17.5C12.73 16.67 13.4 16 14.23 16H16C18.76 16 21 13.76 21 11C21 6.58 16.97 3 12 3ZM6.5 12C5.67 12 5 11.33 5 10.5C5 9.67 5.67 9 6.5 9C7.33 9 8 9.67 8 10.5C8 11.33 7.33 12 6.5 12ZM8 6.5C8 7.33 8.67 8 9.5 8C10.33 8 11 7.33 11 6.5C11 5.67 10.33 5 9.5 5C8.67 5 8 5.67 8 6.5ZM14.5 8C13.67 8 13 7.33 13 6.5C13 5.67 13.67 5 14.5 5C15.33 5 16 5.67 16 6.5C16 7.33 15.33 8 14.5 8ZM16 10.5C16 11.33 16.67 12 17.5 12C18.33 12 19 11.33 19 10.5C19 9.67 18.33 9 17.5 9C16.67 9 16 9.67 16 10.5Z" fill="#858585"/>
</svg>
