<svg width="24" height="24" viewBox="0 0 24 24" fill="none" xmlns="http://www.w3.org/2000/svg">
<path fill-rule="evenodd" clip-rule="evenodd" d="M12 22C17.5228 22 22 17.5228 22 12C22 6.47715 17.5228 2 12 2C6.47715 2 2 6.47715 2 12C2 17.5228 6.47715 22 12 22Z" fill="#858585"/>
<path d="M9 8C8.44772 8 8 8.44772 8 9V15C8 15.5523 8.44772 16 9 16H10C10.5523 16 11 15.5523 11 15V9C11 8.44772 10.5523 8 10 8H9Z" fill="white"/>
<path d="M14 8C13.4477 8 13 8.44772 13 9V15C13 15.5523 13.4477 16 14 16H15C15.5523 16 16 15.5523 16 15V9C16 8.44772 15.5523 8 15 8H14Z" fill="white"/>
</svg>
