<svg width="24" height="24" viewBox="0 0 24 24" fill="none" xmlns="http://www.w3.org/2000/svg">
<path d="M3 4C3 3.44772 3.44772 3 4 3H15C15.5523 3 16 3.44772 16 4C16 4.55228 15.5523 5 15 5H4C3.44772 5 3 4.55228 3 4Z" fill="#858585"/>
<path d="M3 8C3 7.44772 3.44772 7 4 7H11C11.5523 7 12 7.44772 12 8C12 8.55228 11.5523 9 11 9H4C3.44772 9 3 8.55228 3 8Z" fill="#858585"/>
<path d="M4 11C3.44772 11 3 11.4477 3 12C3 12.5523 3.44772 13 4 13H7C7.55228 13 8 12.5523 8 12C8 11.4477 7.55228 11 7 11H4Z" fill="#858585"/>
<path d="M5.91603 21.1616L6.7317 17.2904L14.3673 10.0425L18.8369 14.2852L11.2013 21.533L7.12298 22.3073C6.40527 22.4435 5.77249 21.8429 5.91603 21.1616Z" fill="#858585"/>
<path d="M20.3268 12.871L21.856 11.4195C22.6571 10.659 22.6571 9.42609 21.856 8.66565L20.2875 7.17681C19.4863 6.41636 18.1875 6.41636 17.3863 7.17681L15.8572 8.62833L20.3268 12.871Z" fill="#858585"/>
</svg>
