<svg width="24" height="24" fill="none" xmlns="http://www.w3.org/2000/svg" viewBox="0 0 24 24"><path d="M2 8a6 6 0 016-6h8a6 6 0 016 6v8a6 6 0 01-6 6H8a6 6 0 01-6-6V8z" fill="currentColor"></path><path fill-rule="evenodd" clip-rule="evenodd" d="M18.875 11.189a5.12 5.12 0 00-1.763-3.895c-1.117-.979-2.68-1.544-4.498-1.544-4.736 0-7.958 3.669-7.958 3.669l.908 1.446s.502.042.236-.81c.23-.435.68-1.021 1.557-1.698v9.633c-.378.107-.878.308-.538.65h2.608c.345-.345-.198-.553-.528-.65v-2.272s1.788.704 3.715.704c1.694 0 3.235-.506 4.38-1.42 1.147-.907 1.886-2.263 1.881-3.813zm-1.903-.025c-.005 1.254-.45 2.287-1.242 3.078-.793.786-1.945 1.282-3.275 1.281-1.483.001-2.732-.287-3.556-.694V7.602c.904-.645 2.372-1.043 3.556-1.04 1.44 0 2.57.547 3.334 1.375.763.833 1.18 1.94 1.183 3.227z" fill="currentColor"></path></svg>