<svg width="24" height="24" viewBox="0 0 24 24" fill="none" xmlns="http://www.w3.org/2000/svg">
<path d="M14 6C14 6.74952 13.5877 7.40275 12.9775 7.74524C13.6552 8.75308 14.6342 9.85092 15.75 10C16.601 10.1137 17.5864 9.68282 18.394 9.19222C18.1465 8.8593 18 8.44676 18 8C18 6.89543 18.8954 6 20 6C21.1046 6 22 6.89543 22 8C22 9.10457 21.1046 10 20 10C19.888 10 19.7781 9.99079 19.6712 9.97309L18.7785 15.3288C18.6178 16.2932 17.7834 17 16.8057 17H7.19425C6.21658 17 5.3822 16.2932 5.22147 15.3288L4.32885 9.97309C4.22186 9.99079 4.11201 10 4 10C2.89543 10 2 9.10457 2 8C2 6.89543 2.89543 6 4 6C5.10457 6 6 6.89543 6 8C6 8.44676 5.85352 8.8593 5.60596 9.19222C6.41356 9.68282 7.399 10.1137 8.25 10C9.36576 9.85092 10.3448 8.75308 11.0225 7.74524C10.4123 7.40275 10 6.74952 10 6C10 4.89543 10.8954 4 12 4C13.1046 4 14 4.89543 14 6Z" fill="#858585"/>
<path d="M7 18C6.44772 18 6 18.4477 6 19C6 19.5523 6.44772 20 7 20H17C17.5523 20 18 19.5523 18 19C18 18.4477 17.5523 18 17 18H7Z" fill="#858585"/>
</svg>
