<svg width="24" height="24" viewBox="0 0 24 24" fill="none" xmlns="http://www.w3.org/2000/svg">
<path d="M15.7071 14.7071C16.0976 14.3166 16.0976 13.6834 15.7071 13.2929C15.3166 12.9024 14.6834 12.9024 14.2929 13.2929L13 14.5858V7C13 6.44772 12.5523 6 12 6C11.4477 6 11 6.44772 11 7V14.5858L9.70711 13.2929C9.31658 12.9024 8.68342 12.9024 8.29289 13.2929C7.90237 13.6834 7.90237 14.3166 8.29289 14.7071L11.2929 17.7071C11.4858 17.9 11.7379 17.9976 11.9908 18" fill="#858585"/>
<path d="M12.3828 17.9241C12.5007 17.8753 12.6112 17.803 12.7071 17.7071L15.7071 14.7071" fill="#858585"/>
<path d="M12.3828 17.9241C12.2676 17.9719 12.1415 17.9988 12.0092 18L12.3828 17.9241Z" fill="#858585"/>
<path fill-rule="evenodd" clip-rule="evenodd" d="M17 3H7C4.79086 3 3 4.79086 3 7V17C3 19.2091 4.79086 21 7 21H17C19.2091 21 21 19.2091 21 17V7C21 4.79086 19.2091 3 17 3ZM5 7C5 5.89543 5.89543 5 7 5H17C18.1046 5 19 5.89543 19 7V17C19 18.1046 18.1046 19 17 19H7C5.89543 19 5 18.1046 5 17V7Z" fill="#858585"/>
</svg>
