<svg width="24" height="24" viewBox="0 0 24 24" fill="none" xmlns="http://www.w3.org/2000/svg">
<path d="M12 6.99998C8.68629 6.99998 6 9.68627 6 13C6 16.3137 8.68629 19 12 19C15.3137 19 18 16.3137 18 13C18 12.4477 18.4477 12 19 12C19.5523 12 20 12.4477 20 13C20 17.4183 16.4183 21 12 21C7.58172 21 4 17.4183 4 13C4 8.5817 7.58172 4.99998 12 4.99998H13.4194L11.7191 2.87467C11.3741 2.44341 11.444 1.81412 11.8753 1.46911C12.3066 1.1241 12.9359 1.19402 13.2809 1.62528L16.2809 5.37528C16.573 5.7405 16.573 6.25945 16.2809 6.62467L13.2809 10.3747C12.9359 10.8059 12.3066 10.8759 11.8753 10.5308C11.444 10.1858 11.3741 9.55654 11.7191 9.12528L13.4194 6.99998H12Z" fill="#858585"/>
</svg>
