<svg width="24" height="24" viewBox="0 0 24 24" fill="none" xmlns="http://www.w3.org/2000/svg">
<path d="M12 6.00004C8.68629 6.00004 6 8.68633 6 12C6 15.3137 8.68629 18 12 18C15.3137 18 18 15.3137 18 12C18 11.4478 18.4477 11 19 11C19.5523 11 20 11.4478 20 12C20 16.4183 16.4183 20 12 20C7.58172 20 4 16.4183 4 12C4 7.58176 7.58172 4.00004 12 4.00004H13.4194L11.7191 1.87473C11.3741 1.44347 11.444 0.814178 11.8753 0.469168C12.3066 0.124158 12.9359 0.19408 13.2809 0.625342L16.2809 4.37534C16.573 4.74056 16.573 5.25951 16.2809 5.62473L13.2809 9.37473C12.9359 9.80599 12.3066 9.87592 11.8753 9.53091C11.444 9.1859 11.3741 8.5566 11.7191 8.12534L13.4194 6.00004H12Z" fill="#858585"/>
</svg>
