<svg width="24" height="24" fill="none" xmlns="http://www.w3.org/2000/svg" viewBox="0 0 24 24"><path fill-rule="evenodd" clip-rule="evenodd" d="M19.256 19.317l1.37 1.798c.264.336.384.6.384.72 0 .216-.072.36-.193.456-.12.096-.384.192-.744.263-2.098.424-4.133-1.199-4.133-1.199-1.297.408-2.619.6-4.012.6-2.908 0-5.286-.768-7.112-2.327-1.25-1.055-2.163-2.374-2.74-3.957a10.217 10.217 0 01-.576-3.454c0-2.014.505-3.837 1.514-5.492 1.08-1.751 2.595-3.022 4.517-3.838C8.972 2.312 10.582 2 12.36 2c2.642 0 4.852.672 6.582 2.039a8.695 8.695 0 012.908 4.053c.36 1.031.552 2.159.552 3.358.024 3.142-1.033 5.78-3.147 7.867zm-4.72-12.275c-.945 0-1.895.592-2.536 1.454-.641-.862-1.591-1.454-2.536-1.454a3.043 3.043 0 00-3.042 3.042c0 2.715 1.763 5.04 5.207 6.966.23.13.512.13.742 0 3.444-1.926 5.207-4.25 5.207-6.966a3.043 3.043 0 00-3.042-3.042z" fill="currentColor"></path><path fill-rule="evenodd" clip-rule="evenodd" d="M12 8.496c.641-.862 1.591-1.454 2.536-1.454a3.043 3.043 0 013.042 3.042c0 2.715-1.763 5.04-5.207 6.966a.76.76 0 01-.742 0c-3.444-1.926-5.207-4.25-5.207-6.966a3.043 3.043 0 013.042-3.042c.945 0 1.895.592 2.536 1.454z" fill="currentColor"></path><defs><linearGradient id="paint0_linear" x1="1.5" y1="12.313" x2="22.404" y2="12.313" gradientUnits="userSpaceOnUse"><stop stop-color="currentColor"></stop><stop offset="1" stop-color="currentColor"></stop></linearGradient></defs></svg>