<svg width="24" height="24" viewBox="0 0 24 24" fill="none" xmlns="http://www.w3.org/2000/svg">
<path fill-rule="evenodd" clip-rule="evenodd" d="M3 13.5H8C8.82843 13.5 9.5 12.8284 9.5 12C9.5 11.1716 8.82843 10.5 8 10.5H3L3 3.69458C3 3.1423 3.44772 2.69458 4 2.69458C4.16229 2.69458 4.32214 2.73408 4.46575 2.80966L20.3187 11.1533C20.8074 11.4105 20.9951 12.0152 20.7378 12.504C20.6437 12.6828 20.4975 12.829 20.3187 12.9231L4.46575 21.2668C3.97702 21.524 3.37231 21.3363 3.11508 20.8476C3.0395 20.704 3 20.5441 3 20.3819L3 13.5Z" fill="#858585"/>
</svg>
