<svg width="24" height="24" viewBox="0 0 24 24" fill="none" xmlns="http://www.w3.org/2000/svg">
<path d="M13 6.375C13 4.85622 14.2312 3.625 15.75 3.625C17.2688 3.625 18.5 4.85622 18.5 6.375C18.5 7.89378 17.2688 9.125 15.75 9.125C15.0994 9.125 14.5016 8.89907 14.0307 8.5214L8.71902 11.5858C8.73942 11.7209 8.75 11.8592 8.75 12C8.75 12.1408 8.73942 12.2791 8.71902 12.4142L14.0307 15.4786C14.5016 15.1009 15.0994 14.875 15.75 14.875C17.2688 14.875 18.5 16.1062 18.5 17.625C18.5 19.1438 17.2688 20.375 15.75 20.375C14.2312 20.375 13 19.1438 13 17.625C13 17.4842 13.0106 17.3459 13.031 17.2108L7.71931 14.1464C7.24842 14.5241 6.6506 14.75 6 14.75C4.48122 14.75 3.25 13.5188 3.25 12C3.25 10.4812 4.48122 9.25 6 9.25C6.6506 9.25 7.24842 9.47593 7.71931 9.8536L13.031 6.78918C13.0106 6.65409 13 6.51578 13 6.375Z" fill="#858585"/>
</svg>
