<svg width="24" height="24" viewBox="0 0 24 24" fill="none" xmlns="http://www.w3.org/2000/svg">
<path fill-rule="evenodd" clip-rule="evenodd" d="M8 6C8 3.79086 9.79086 2 12 2C14.2091 2 16 3.79086 16 6H17C18.6569 6 20 7.34315 20 9V18C20 19.6569 18.6569 21 17 21H7C5.34315 21 4 19.6569 4 18V9C4 7.34315 5.34315 6 7 6H8ZM10 6C10 4.89543 10.8954 4 12 4C13.1046 4 14 4.89543 14 6H10ZM8 8V10C8 10.5523 8.44772 11 9 11C9.55228 11 10 10.5523 10 10V8H14V10C14 10.5523 14.4477 11 15 11C15.5523 11 16 10.5523 16 10V8H17C17.5523 8 18 8.44772 18 9V18C18 18.5523 17.5523 19 17 19H7C6.44772 19 6 18.5523 6 18V9C6 8.44772 6.44772 8 7 8H8Z" fill="#858585"/>
</svg>
