<svg width="24" height="24" viewBox="0 0 24 24" fill="none" xmlns="http://www.w3.org/2000/svg">
<path d="M14.5 12C14.5 13.3807 13.3807 14.5 12 14.5C10.6193 14.5 9.5 13.3807 9.5 12C9.5 10.6193 10.6193 9.5 12 9.5C13.3807 9.5 14.5 10.6193 14.5 12Z" fill="#858585"/>
<path fill-rule="evenodd" clip-rule="evenodd" d="M1 12C4.14286 6.66667 7.80952 4 12 4C16.1905 4 19.8571 6.66667 23 12C19.8571 17.3333 16.1905 20 12 20C7.80952 20 4.14286 17.3333 1 12ZM12 16.5C14.4853 16.5 16.5 14.4853 16.5 12C16.5 9.51472 14.4853 7.5 12 7.5C9.51472 7.5 7.5 9.51472 7.5 12C7.5 14.4853 9.51472 16.5 12 16.5Z" fill="#858585"/>
</svg>
