<svg width="24" height="24" viewBox="0 0 24 24" fill="none" xmlns="http://www.w3.org/2000/svg">
<path d="M15.277 9.14481L12.5878 7.19101L8.05636 3.90776C9.23793 3.33086 10.5646 3.00512 11.9668 3.00006C11.9779 3.00002 11.9889 3 12 3C12.0117 3 12.0235 3.00002 12.0352 3.00007C13.7924 3.00679 15.4308 3.51708 16.8137 4.39412L15.277 9.14481Z" fill="#858585"/>
<path d="M18.4768 5.75091L15.7281 14.2343L20.7222 14.2277C20.8748 13.6282 20.9673 13.0046 20.9928 12.3639C20.9976 12.2432 21 12.1219 21 12C21 11.8104 20.9941 11.6222 20.9826 11.4355C20.8462 9.23205 19.917 7.24326 18.4768 5.75091Z" fill="#858585"/>
<path d="M19.9467 16.2287L11.0271 16.2361L12.576 20.9819C13.7748 20.9061 14.91 20.5957 15.9362 20.0959C16.086 20.0229 16.2335 19.9459 16.3785 19.865C17.8892 19.0222 19.1319 17.7568 19.9467 16.2287Z" fill="#858585"/>
<path d="M10.4338 20.8642L7.67062 12.3838L3.63399 15.3246C4.35316 17.1328 5.64152 18.6527 7.27785 19.6632C8.22726 20.2494 9.29369 20.6641 10.4338 20.8642Z" fill="#858585"/>
<path d="M3.08602 13.2494L10.2972 8.00114L6.25466 5.07213C4.274 6.71654 3.0099 9.19418 3.00006 11.9674C3.00002 11.9782 3 11.9891 3 12C3 12.4239 3.02931 12.841 3.08602 13.2494Z" fill="#858585"/>
</svg>
