<svg width="24" height="24" viewBox="0 0 24 24" fill="none" xmlns="http://www.w3.org/2000/svg">
<path d="M9 3H15V4H19C19.5523 4 20 4.44772 20 5C20 5.55228 19.5523 6 19 6H5C4.44772 6 4 5.55228 4 5C4 4.44772 4.44772 4 5 4H9V3Z" fill="#858585"/>
<path fill-rule="evenodd" clip-rule="evenodd" d="M18 7H6V18C6 19.6569 7.34315 21 9 21H15C16.6569 21 18 19.6569 18 18V7ZM10.58 11.17C10.19 10.78 9.56 10.78 9.17 11.17C8.78 11.56 8.78 12.2 9.17 12.58L10.59 14L9.17 15.42C8.78 15.81 8.78 16.44 9.17 16.83C9.56 17.22 10.19 17.22 10.58 16.83L12 15.41L13.42 16.83C13.81 17.22 14.44 17.22 14.83 16.83C15.22 16.44 15.22 15.81 14.83 15.42L13.41 14L14.83 12.58C15.22 12.19 15.22 11.56 14.83 11.17C14.44 10.78 13.81 10.78 13.42 11.17L12 12.59L10.58 11.17Z" fill="#858585"/>
</svg>
