<svg width="24" height="24" viewBox="0 0 24 24" fill="none" xmlns="http://www.w3.org/2000/svg">
<path fill-rule="evenodd" clip-rule="evenodd" d="M2 13.625C2 16.1103 4.01472 18.125 6.5 18.125H18C20.2091 18.125 22 16.3341 22 14.125C22 12.5885 21.1337 11.2544 19.8629 10.5844C19.6478 6.91185 16.6015 4 12.875 4C9.65287 4 6.9392 6.17703 6.12469 9.14043C3.81501 9.33113 2 11.2661 2 13.625ZM12 10.2108L16.0821 14.2929C16.4726 14.6834 16.4726 15.3166 16.0821 15.7071C15.6916 16.0976 15.0584 16.0976 14.6679 15.7071L13 14.0392V20.5C13 21.0523 12.5523 21.5 12 21.5C11.4477 21.5 11 21.0523 11 20.5V14.0392L9.33211 15.7071C8.94158 16.0976 8.30842 16.0976 7.91789 15.7071C7.52737 15.3166 7.52737 14.6834 7.91789 14.2929L12 10.2108Z" fill="#858585"/>
</svg>
