<svg width="24" height="24" viewBox="0 0 24 24" fill="none" xmlns="http://www.w3.org/2000/svg">
<path fill-rule="evenodd" clip-rule="evenodd" d="M7.50727 10.5C9.575 10.4961 11.25 8.81864 11.25 6.75C11.25 4.67893 9.57107 3 7.5 3C5.42893 3 3.75 4.67893 3.75 6.75C3.75 8.81864 5.425 10.4961 7.49273 10.5C4.45851 10.5038 2 12.8834 2 15.8182C2 16.4709 2.52912 17 3.18182 17H10.6334C11.1181 15.9744 11.8689 15.1385 12.8439 14.5551C12.2582 12.2298 10.0915 10.5032 7.50727 10.5ZM16.5 14.5C18.5711 14.5 20.25 12.8211 20.25 10.75C20.25 8.67893 18.5711 7 16.5 7C14.4289 7 12.75 8.67893 12.75 10.75C12.75 12.8211 14.4289 14.5 16.5 14.5ZM16.5 14.5C13.4624 14.5 11 16.881 11 19.8182V20C11 20.5523 11.4477 21 12 21H21C21.5523 21 22 20.5523 22 20V19.8182C22 16.881 19.5376 14.5 16.5 14.5Z" fill="#858585"/>
</svg>
