<svg width="24" height="24" viewBox="0 0 24 24" fill="none" xmlns="http://www.w3.org/2000/svg">
<path d="M6 5C5.44772 5 5 5.44772 5 6V10.5C5 11.0523 5.44772 11.5 6 11.5H10.5C11.0523 11.5 11.5 11.0523 11.5 10.5V6C11.5 5.44772 11.0523 5 10.5 5H6Z" fill="#858585"/>
<path d="M13.5 5C12.9477 5 12.5 5.44772 12.5 6V10.5C12.5 11.0523 12.9477 11.5 13.5 11.5H18C18.5523 11.5 19 11.0523 19 10.5V6C19 5.44772 18.5523 5 18 5H13.5Z" fill="#858585"/>
<path d="M5 13.5C5 12.9477 5.44772 12.5 6 12.5H10.5C11.0523 12.5 11.5 12.9477 11.5 13.5V18C11.5 18.5523 11.0523 19 10.5 19H6C5.44772 19 5 18.5523 5 18V13.5Z" fill="#858585"/>
<path d="M13.5 12.5C12.9477 12.5 12.5 12.9477 12.5 13.5V18C12.5 18.5523 12.9477 19 13.5 19H18C18.5523 19 19 18.5523 19 18V13.5C19 12.9477 18.5523 12.5 18 12.5H13.5Z" fill="#858585"/>
</svg>
