<svg width="24" height="24" viewBox="0 0 24 24" fill="none" xmlns="http://www.w3.org/2000/svg"><path d="M3.5 4a1 1 0 100-2 1 1 0 000 2zM6.5 5a1 1 0 11-2 0 1 1 0 012 0zM7.5 8a1 1 0 100-2 1 1 0 000 2zM9.5 10a1 1 0 100-2 1 1 0 000 2zM5.5 10a1 1 0 100-2 1 1 0 000 2zM6.5 13a1 1 0 11-2 0 1 1 0 012 0zM4.5 7a1 1 0 11-2 0 1 1 0 012 0zM3.5 12a1 1 0 100-2 1 1 0 000 2zM4.5 15a1 1 0 11-2 0 1 1 0 012 0zM7.5 12a1 1 0 100-2 1 1 0 000 2zM13.75 5.5A1.75 1.75 0 0012 7.25v3c0 .966.784 1.75 1.75 1.75h3a1.75 1.75 0 001.75-1.75v-3a1.75 1.75 0 00-1.75-1.75h-3zM9.5 17.25a3.75 3.75 0 013.75-3.75h4A3.75 3.75 0 0121 17.25v3A1.75 1.75 0 0119.25 22h-8a1.75 1.75 0 01-1.75-1.75v-3z" fill="currentColor"/></svg>