<svg width="24" height="24" viewBox="0 0 24 24" fill="none" xmlns="http://www.w3.org/2000/svg"><path fill-rule="evenodd" clip-rule="evenodd" d="M3.61 12.611a5.5 5.5 0 117.78 7.779 5.5 5.5 0 01-7.78-7.779zm5.946 4.948a.75.75 0 00-1.058.078 1.325 1.325 0 01-.413.341 1.283 1.283 0 01-.585.117c-.27 0-.451-.05-.586-.116a1.325 1.325 0 01-.412-.342.751.751 0 00-1.136.98c.234.271.518.524.884.705.37.183.783.273 1.25.273.468 0 .881-.09 1.25-.273a2.81 2.81 0 00.884-.706.75.75 0 00-.078-1.057zM5.5 14.65a1 1 0 100 2 1 1 0 000-2zm4 0a1 1 0 100 2 1 1 0 000-2z" fill="#1F1F1F"/><path d="M17.658 14.48a.645.645 0 01.926 0l2.349 2.426A.645.645 0 0120.47 18h-1.635v.407A3.593 3.593 0 0115.243 22a.75.75 0 010-1.5 2.093 2.093 0 002.092-2.092V18h-1.563a.645.645 0 01-.463-1.094l2.349-2.426z" fill="#1F1F1F"/><path fill-rule="evenodd" clip-rule="evenodd" d="M12.61 3.611a5.5 5.5 0 117.78 7.779 5.5 5.5 0 01-7.78-7.779zm5.946 4.948a.75.75 0 00-1.058.078 1.327 1.327 0 01-.413.342 1.284 1.284 0 01-.585.116c-.27 0-.451-.05-.585-.116a1.325 1.325 0 01-.413-.342.751.751 0 00-1.136.98c.234.271.518.524.884.705.37.183.783.273 1.25.273.468 0 .881-.09 1.25-.273.367-.18.65-.434.884-.706a.75.75 0 00-.078-1.057zM14.5 5.65a1 1 0 100 2 1 1 0 000-2zm4 0a1 1 0 100 2 1 1 0 000-2z" fill="#1F1F1F"/><path d="M8.754 2a.75.75 0 010 1.5 2.093 2.093 0 00-2.092 2.093V6H8.22c.57 0 .86.684.463 1.094L6.334 9.52a.645.645 0 01-.926 0L3.059 7.094A.645.645 0 013.522 6h1.64v-.407A3.593 3.593 0 018.754 2z" fill="#1F1F1F"/></svg>