<svg width="24" height="24" viewBox="0 0 24 24" fill="none" xmlns="http://www.w3.org/2000/svg"><path fill-rule="evenodd" clip-rule="evenodd" d="M3.357 8.428a1.25 1.25 0 011.715.429c.424.706 1.319 1.833 2.558 2.772 1.235.935 2.725 1.62 4.37 1.62s3.135-.685 4.37-1.62c1.24-.939 2.134-2.066 2.558-2.772a1.25 1.25 0 012.144 1.286 11.766 11.766 0 01-1.362 1.8l1.174 1.173a1.25 1.25 0 01-1.768 1.768l-1.251-1.251c-.621.469-1.325.91-2.102 1.266l.45 1.798a1.25 1.25 0 01-2.426.606l-.416-1.664a8.526 8.526 0 01-2.742 0l-.416 1.664a1.25 1.25 0 01-2.426-.606l.45-1.798a11.398 11.398 0 01-2.102-1.266l-1.251 1.25a1.25 1.25 0 11-1.768-1.767l1.174-1.173a11.767 11.767 0 01-1.362-1.8 1.25 1.25 0 01.429-1.715z" fill="currentColor"/></svg>