<svg width="24" height="24" viewBox="0 0 24 24" fill="none" xmlns="http://www.w3.org/2000/svg"><path fill-rule="evenodd" clip-rule="evenodd" d="M11.25 2v5.25A3.75 3.75 0 0015 11h5v1.823a2.25 2.25 0 00-3.371 2.927H14a2.25 2.25 0 000 4.5h2.629a2.252 2.252 0 00-.323 1.75H7.75A3.75 3.75 0 014 18.25V5.75A3.75 3.75 0 017.75 2h3.5zm1.5.169V7.25A2.25 2.25 0 0015 9.5h4.883a3.75 3.75 0 00-.962-1.702l-4.612-4.68a3.75 3.75 0 00-1.559-.95zm5.22 11.8a.75.75 0 000 1.061l2.22 2.22H14a.75.75 0 000 1.5h6.19l-2.22 2.22a.75.75 0 101.06 1.06l3.5-3.5a.75.75 0 000-1.06l-3.5-3.5a.75.75 0 00-1.06 0z" fill="currentColor"/></svg>