<svg width="24" height="24" viewBox="0 0 24 24" fill="none" xmlns="http://www.w3.org/2000/svg"><path fill-rule="evenodd" clip-rule="evenodd" d="M13.75 2v4.8c0 .966.784 1.75 1.75 1.75H20v1.95H4V5.75A3.75 3.75 0 017.75 2h6zm1.5.31V6.8c0 .138.112.25.25.25h4.305a3.749 3.749 0 00-.903-1.459l-2.493-2.493a3.749 3.749 0 00-1.159-.788zM2 14a2 2 0 012-2h16a2 2 0 012 2v6a2 2 0 01-2 2H4a2 2 0 01-2-2v-6zm3.43 5.563c-.205 0-.364-.056-.476-.168-.112-.117-.168-.278-.168-.483v-3.696c0-.21.056-.371.168-.483.117-.112.278-.168.483-.168H7.16c.56 0 .992.145 1.295.434.308.285.462.679.462 1.183s-.154.9-.462 1.19c-.303.285-.735.427-1.295.427H6.074v1.113c0 .205-.054.366-.16.483-.108.112-.27.168-.484.168zm.644-2.751h.861c.243 0 .43-.051.56-.154.13-.107.196-.266.196-.476 0-.215-.065-.373-.196-.476-.13-.103-.317-.154-.56-.154h-.86v1.26zm4.325 2.751c-.196 0-.346-.051-.448-.154-.103-.103-.154-.254-.154-.455v-3.815c0-.205.05-.362.154-.469a.525.525 0 01.405-.168c.15 0 .267.028.35.084.085.056.178.15.28.28l2.023 2.527v-2.289c0-.196.05-.345.147-.448.103-.103.252-.154.448-.154.197 0 .344.051.442.154.102.103.154.252.154.448v3.878c0 .177-.047.32-.14.427a.485.485 0 01-.379.154.732.732 0 01-.377-.084 1.444 1.444 0 01-.287-.28l-2.024-2.534v2.289c0 .2-.05.352-.154.455-.098.103-.245.154-.44.154zm7.502.014c-.564 0-1.045-.105-1.442-.315a2.15 2.15 0 01-.896-.882c-.205-.378-.308-.819-.308-1.323 0-.392.06-.744.182-1.057a2.272 2.272 0 011.393-1.33 3.43 3.43 0 011.155-.182c.234 0 .472.023.714.07.243.042.48.124.714.245a.453.453 0 01.245.238c.047.098.06.203.042.315a.67.67 0 01-.119.301.456.456 0 01-.252.182.547.547 0 01-.364-.049 2 2 0 00-.455-.147 2.32 2.32 0 00-.518-.056c-.312 0-.574.056-.784.168-.205.112-.36.278-.462.497-.102.22-.154.488-.154.805 0 .476.117.835.35 1.078.234.243.579.364 1.036.364.14 0 .292-.014.455-.042.089-.015.178-.033.266-.054v-.779h-.49a.537.537 0 01-.37-.119.44.44 0 01-.127-.336c0-.145.042-.254.126-.329a.537.537 0 01.371-.119h1.036c.164 0 .287.044.371.133.089.084.133.208.133.371v1.547c0 .14-.03.259-.09.357a.47.47 0 01-.274.21 4.76 4.76 0 01-1.484.238z" fill="currentColor"/></svg>