<svg width="24" height="24" viewBox="0 0 24 24" fill="none" xmlns="http://www.w3.org/2000/svg"><path d="M3.751 7.376a1.125 1.125 0 01-1.125-1.125 3.625 3.625 0 013.625-3.625 1.125 1.125 0 010 2.25c-.76 0-1.375.616-1.375 1.375 0 .622-.504 1.125-1.125 1.125zM3.751 16.628c-.621 0-1.125.504-1.125 1.125a3.625 3.625 0 003.625 3.625 1.125 1.125 0 000-2.25c-.76 0-1.375-.615-1.375-1.375 0-.62-.504-1.125-1.125-1.125zM21.332 17.753a1.125 1.125 0 00-2.25 0c0 .76-.616 1.375-1.375 1.375a1.125 1.125 0 100 2.25 3.625 3.625 0 003.625-3.625zM20.25 7.376c.621 0 1.125-.503 1.125-1.125a3.625 3.625 0 00-3.625-3.625 1.125 1.125 0 000 2.25c.76 0 1.375.616 1.375 1.375 0 .622.504 1.125 1.125 1.125zM4.876 9.75a1.125 1.125 0 00-2.25 0v.5a1.125 1.125 0 002.25 0v-.5zM20.25 8.625c.621 0 1.125.503 1.125 1.125v.5a1.125 1.125 0 01-2.25 0v-.5c0-.622.504-1.125 1.125-1.125zM14.25 4.876a1.125 1.125 0 000-2.25h-.5a1.125 1.125 0 000 2.25h.5zM15.375 20.253c0 .622-.504 1.125-1.125 1.125h-.5a1.125 1.125 0 010-2.25h.5c.621 0 1.125.504 1.125 1.125zM4.876 13.75a1.125 1.125 0 10-2.25 0v.5a1.125 1.125 0 002.25 0v-.5zM20.25 12.625c.621 0 1.125.503 1.125 1.125v.5a1.125 1.125 0 01-2.25 0v-.5c0-.622.504-1.125 1.125-1.125zM10.25 4.876a1.125 1.125 0 000-2.25h-.5a1.125 1.125 0 000 2.25h.5zM11.375 20.253c0 .622-.504 1.125-1.125 1.125h-.5a1.125 1.125 0 010-2.25h.5c.621 0 1.125.504 1.125 1.125zM9.25 7.25a2 2 0 00-2 2v5.5a2 2 0 002 2h5.5a2 2 0 002-2v-5.5a2 2 0 00-2-2h-5.5z" fill="currentColor"/></svg>