<svg width="24" height="24" viewBox="0 0 24 24" fill="none" xmlns="http://www.w3.org/2000/svg"><path d="M13.884 4.007a7.627 7.627 0 00-1.307-.021 1.125 1.125 0 11-.154-2.245 9.877 9.877 0 011.693.028 1.125 1.125 0 11-.232 2.238zM10.157 3.261c.283.553.065 1.231-.488 1.515-.43.22-.822.48-1.167.777a1.125 1.125 0 01-1.466-1.708 8.217 8.217 0 011.607-1.072 1.125 1.125 0 011.514.488zM16.29 3.381a1.125 1.125 0 011.558-.32c.452.297.867.638 1.24 1.013a1.125 1.125 0 11-1.596 1.586 5.538 5.538 0 00-.882-.72 1.125 1.125 0 01-.32-1.559zM6.316 6.306c.596.174.938.8.764 1.396-.116.394-.18.826-.18 1.298a1.125 1.125 0 11-2.25 0c0-.68.093-1.326.27-1.931.175-.596.8-.938 1.396-.763zM19.658 6.634c.601-.16 1.217.2 1.376.8.131.498.209 1.012.225 1.531a1.125 1.125 0 01-2.25.07 4.563 4.563 0 00-.15-1.026c-.16-.6.199-1.216.8-1.375zM19.915 11.049c.526.331.683 1.026.351 1.551a7.12 7.12 0 01-1.102 1.341 1.125 1.125 0 11-1.556-1.625c.308-.295.557-.602.755-.916a1.125 1.125 0 011.552-.351zM6.16 11.272a1.125 1.125 0 011.567.273c.495.705 1.198 1.313 2.049 1.755.507-.31 1.216-.41 1.933-.218.637.171 1.153.538 1.46.985a7.168 7.168 0 001.842-.281 1.125 1.125 0 11.63 2.16 9.444 9.444 0 01-3.022.365c-.448.232-1.025.314-1.62.197-.464.23-1.04.115-1.377-.305l-.013-.013a1.205 1.205 0 00-.197-.138 2.866 2.866 0 00-.57-.232 5.015 5.015 0 00-1.62-.195c-.57.026-1.043.154-1.36.347-.286.172-.449.39-.502.713-.036.213.011.359.193.539.227.224.632.452 1.212.647 1.148.386 2.559.504 3.235.504 1.7 0 3.658.566 4.748 2.268a1.125 1.125 0 11-1.894 1.214c-.511-.798-1.553-1.232-2.854-1.232-.824 0-2.496-.132-3.952-.621-.723-.243-1.5-.609-2.078-1.181-.623-.617-1.002-1.472-.83-2.508.175-1.051.784-1.801 1.557-2.269.515-.311 1.095-.496 1.673-.591a7.388 7.388 0 01-.484-.616 1.125 1.125 0 01.274-1.567z" fill="currentColor"/></svg>