<svg width="24" height="24" viewBox="0 0 24 24" fill="none" xmlns="http://www.w3.org/2000/svg"><path fill-rule="evenodd" clip-rule="evenodd" d="M11.118 4.838a3.712 3.712 0 10-5.25 5.25 3.712 3.712 0 005.25-5.25zm-3.347 7.621a5.682 5.682 0 00-5.683 5.682 2.87 2.87 0 002.871 2.871h7.082a2.87 2.87 0 002.87-2.87 5.682 5.682 0 00-5.682-5.683H7.771zM18 5.75a.75.75 0 01.75.75v2.75h2.75a.75.75 0 010 1.5h-2.75v2.75a.75.75 0 01-1.5 0v-2.75H14.5a.75.75 0 010-1.5h2.75V6.5a.75.75 0 01.75-.75z" fill="currentColor"/></svg>