<svg width="24" height="24" viewBox="0 0 24 24" fill="none" xmlns="http://www.w3.org/2000/svg"><path fill-rule="evenodd" clip-rule="evenodd" d="M8 4.188c.52 0 .986.322 1.17.808l3.296 8.735 1.704 4.515a1.25 1.25 0 01-2.34.883l-1.398-3.706H5.568L4.17 19.129a1.25 1.25 0 01-2.339-.883l1.704-4.515L6.83 4.996A1.25 1.25 0 018 4.187zm-1.489 8.735h2.977L8 8.978l-1.489 3.945zm14.485-1.847c.69 0 1.25.56 1.25 1.25v6.355a1.25 1.25 0 01-2.239.765 3.736 3.736 0 01-1.511.317h-.246a3.75 3.75 0 01-3.75-3.75v-1.187a3.75 3.75 0 013.75-3.75h.246c.579 0 1.127.13 1.616.365.227-.226.539-.365.884-.365zm-1.25 3.75c0-.69-.56-1.25-1.25-1.25h-.246c-.69 0-1.25.56-1.25 1.25v1.187c0 .69.56 1.25 1.25 1.25h.246c.69 0 1.25-.56 1.25-1.25v-1.187z" fill="currentColor"/></svg>