<svg width="24" height="24" viewBox="0 0 24 24" fill="none" xmlns="http://www.w3.org/2000/svg"><path fill-rule="evenodd" clip-rule="evenodd" d="M4.24 9.142l.011.006L9.42 12.13l-5.163 2.98-.016.01c-.899.519-1.623 1.257-2.037 2.088-.41.82-.572 1.883-.022 2.836.55.952 1.551 1.342 2.467 1.399.926.056 1.928-.202 2.826-.721.9-.52 1.624-1.257 2.038-2.088.409-.82.572-1.884.022-2.836a2.599 2.599 0 00-.458-.583l2.843-1.641 8.192 4.73a1.25 1.25 0 001.25-2.165L14.42 12.13l6.943-4.008a1.25 1.25 0 10-1.25-2.165l-8.193 4.73-2.876-1.66c.218-.194.411-.425.569-.698.55-.952.445-2.025.051-2.892-.396-.869-1.118-1.637-2.034-2.166-.916-.529-1.942-.77-2.893-.678-.948.091-1.928.538-2.478 1.49-.55.952-.446 2.025-.051 2.891.395.87 1.118 1.638 2.033 2.167zm.737-4.06c-.379.037-.513.181-.554.252-.04.07-.099.26.059.605.156.343.49.737 1.004 1.035l.004.002.009.005c.514.295 1.02.387 1.394.35.378-.036.513-.18.554-.251.04-.071.098-.26-.06-.606-.156-.343-.491-.738-1.008-1.037-.517-.298-1.027-.391-1.402-.355zm.507 12.208a.228.228 0 01.006-.004l.013-.007c.53-.303 1.042-.406 1.41-.384a.947.947 0 01.373.087c.063.033.078.059.083.067.005.008.02.035.016.106a.947.947 0 01-.11.365c-.166.333-.517.73-1.05 1.038-.535.308-1.053.413-1.424.39a.947.947 0 01-.372-.087c-.063-.032-.079-.058-.083-.066-.005-.008-.02-.035-.016-.106a.947.947 0 01.11-.366c.166-.331.514-.725 1.044-1.033z" fill="currentColor"/></svg>