<svg width="24" height="24" viewBox="0 0 24 24" fill="none" xmlns="http://www.w3.org/2000/svg"><path d="M3.751 7.376a1.125 1.125 0 01-1.125-1.125 3.625 3.625 0 013.625-3.625 1.125 1.125 0 010 2.25c-.76 0-1.375.616-1.375 1.375 0 .622-.504 1.125-1.125 1.125zM3.751 16.629c-.621 0-1.125.503-1.125 1.125a3.625 3.625 0 003.625 3.625 1.125 1.125 0 000-2.25c-.76 0-1.375-.616-1.375-1.375 0-.622-.504-1.125-1.125-1.125zM21.332 17.754a1.125 1.125 0 00-2.25 0c0 .759-.616 1.375-1.375 1.375a1.125 1.125 0 100 2.25 3.625 3.625 0 003.625-3.625zM20.25 7.376c.621 0 1.125-.503 1.125-1.125a3.625 3.625 0 00-3.625-3.625 1.125 1.125 0 000 2.25c.76 0 1.375.616 1.375 1.375 0 .622.504 1.125 1.125 1.125zM4.876 9.75a1.125 1.125 0 00-2.25 0v.5a1.125 1.125 0 002.25 0v-.5zM20.25 8.625c.621 0 1.125.504 1.125 1.125v.5a1.125 1.125 0 01-2.25 0v-.5c0-.621.504-1.125 1.125-1.125zM14.25 4.876a1.125 1.125 0 000-2.25h-.5a1.125 1.125 0 000 2.25h.5zM15.375 20.253c0 .622-.504 1.125-1.125 1.125h-.5a1.125 1.125 0 010-2.25h.5c.621 0 1.125.504 1.125 1.125zM4.876 13.75a1.125 1.125 0 00-2.25 0v.5a1.125 1.125 0 002.25 0v-.5zM20.25 12.625c.621 0 1.125.504 1.125 1.125v.5a1.125 1.125 0 01-2.25 0v-.5c0-.621.504-1.125 1.125-1.125zM10.25 4.876a1.125 1.125 0 000-2.25h-.5a1.125 1.125 0 000 2.25h.5zM11.375 20.253c0 .622-.504 1.125-1.125 1.125h-.5a1.125 1.125 0 010-2.25h.5c.621 0 1.125.504 1.125 1.125zM13.125 7.5a1.125 1.125 0 00-2.25 0v1a1.125 1.125 0 002.25 0v-1zM9.796 8.205a1.125 1.125 0 00-1.591 1.59l.5.5a1.125 1.125 0 101.59-1.59l-.5-.5zM15.796 9.796a1.125 1.125 0 00-1.591-1.591l-.5.5a1.125 1.125 0 001.59 1.59l.5-.5zM7.5 10.875a1.125 1.125 0 000 2.25h1a1.125 1.125 0 100-2.25h-1zM15.5 10.875a1.125 1.125 0 000 2.25h1a1.125 1.125 0 100-2.25h-1zM10.296 15.296a1.125 1.125 0 00-1.591-1.591l-.5.5a1.125 1.125 0 001.59 1.59l.5-.5zM15.296 13.705a1.125 1.125 0 00-1.591 1.59l.5.5a1.125 1.125 0 101.59-1.59l-.5-.5zM13.125 15.5a1.125 1.125 0 00-2.25 0v1a1.125 1.125 0 102.25 0v-1z" fill="#1F1F1F"/></svg>