<svg width="24" height="24" viewBox="0 0 24 24" fill="none" xmlns="http://www.w3.org/2000/svg"><path d="M2.626 6.251a1.125 1.125 0 002.25 0c0-.76.616-1.375 1.375-1.375a1.125 1.125 0 000-2.25 3.625 3.625 0 00-3.625 3.625zM2.626 17.753a1.125 1.125 0 012.25 0c0 .76.616 1.375 1.375 1.375a1.125 1.125 0 010 2.25 3.625 3.625 0 01-3.625-3.625zM20.207 16.628c.621 0 1.125.504 1.125 1.125a3.625 3.625 0 01-3.625 3.625 1.125 1.125 0 110-2.25c.76 0 1.375-.616 1.375-1.375 0-.621.503-1.125 1.125-1.125zM21.375 6.251a1.125 1.125 0 01-2.25 0c0-.76-.616-1.375-1.375-1.375a1.125 1.125 0 010-2.25 3.625 3.625 0 013.625 3.625zM3.751 8.625c.621 0 1.125.503 1.125 1.125v.5a1.125 1.125 0 01-2.25 0v-.5c0-.622.504-1.125 1.125-1.125zM21.375 9.75a1.125 1.125 0 00-2.25 0v.5a1.125 1.125 0 002.25 0v-.5zM15.375 3.751c0 .621-.504 1.125-1.125 1.125h-.5a1.125 1.125 0 010-2.25h.5c.621 0 1.125.504 1.125 1.125zM14.25 21.378a1.125 1.125 0 100-2.25h-.5a1.125 1.125 0 000 2.25h.5zM3.751 12.624c.621 0 1.125.504 1.125 1.125v.5a1.125 1.125 0 01-2.25 0v-.5c0-.62.504-1.125 1.125-1.125zM21.375 13.75a1.125 1.125 0 00-2.25 0v.5a1.125 1.125 0 002.25 0v-.5zM11.375 3.751c0 .621-.504 1.125-1.125 1.125h-.5a1.125 1.125 0 010-2.25h.5c.621 0 1.125.504 1.125 1.125zM10.25 21.378a1.125 1.125 0 100-2.25h-.5a1.125 1.125 0 000 2.25h.5z" fill="currentColor"/></svg>