<svg width="24" height="24" viewBox="0 0 24 24" fill="none" xmlns="http://www.w3.org/2000/svg"><path fill-rule="evenodd" clip-rule="evenodd" d="M14.92 3.545c.413-.242.948-.374 1.506-.197l4.348 1.377a1.75 1.75 0 011.222 1.668v2.735a2.75 2.75 0 01-3.316 2.691v5.427a2.75 2.75 0 01-2.75 2.75H8.07a2.75 2.75 0 01-2.75-2.75V11.85a2.75 2.75 0 01-3.316-2.691V6.405A1.75 1.75 0 013.25 4.729l4.394-1.32c1.098-.33 2.016.467 2.396 1.167A2.231 2.231 0 0012 5.75c.85 0 1.595-.482 1.974-1.201a2.56 2.56 0 01.946-1.005z" fill="currentColor"/></svg>