<svg width="32" height="32" viewBox="0 0 32 32" fill="none" xmlns="http://www.w3.org/2000/svg">
<path d="M18.8284 16L23.4142 20.5858C24.1953 21.3668 24.1953 22.6332 23.4142 23.4142C22.6332 24.1953 21.3668 24.1953 20.5858 23.4142L16 18.8284L11.4142 23.4142C10.6332 24.1953 9.36684 24.1953 8.58579 23.4142C7.80474 22.6332 7.80474 21.3668 8.58579 20.5858L13.1716 16L8.58579 11.4142C7.80474 10.6332 7.80474 9.36684 8.58579 8.58579C9.36684 7.80474 10.6332 7.80474 11.4142 8.58579L16 13.1716L20.5858 8.58579C21.3668 7.80474 22.6332 7.80474 23.4142 8.58579C24.1953 9.36684 24.1953 10.6332 23.4142 11.4142L18.8284 16Z" fill="#858585"/>
</svg>
