<svg width="32" height="32" viewBox="0 0 32 32" fill="none" xmlns="http://www.w3.org/2000/svg">
<path fill-rule="evenodd" clip-rule="evenodd" d="M6.39298 26.607L11.232 25.9157C12.6744 26.6106 14.2917 27 16 27C22.0751 27 27 22.0751 27 16C27 9.92487 22.0751 5 16 5C9.92487 5 5 9.92487 5 16C5 18.3572 5.74142 20.5412 7.00377 22.3315L6.39298 26.607ZM16 25C14.396 25 12.8899 24.5804 11.5857 23.8449L8.75 24.25L9.1026 21.7818C7.79028 20.218 7 18.2013 7 16C7 11.0294 11.0294 7 16 7C20.9706 7 25 11.0294 25 16C25 20.9706 20.9706 25 16 25Z" fill="#858585"/>
</svg>
