<svg width="32" height="32" viewBox="0 0 32 32" fill="none" xmlns="http://www.w3.org/2000/svg">
<path d="M9 18C10.1046 18 11 17.1046 11 16C11 14.8954 10.1046 14 9 14C7.89543 14 7 14.8954 7 16C7 17.1046 7.89543 18 9 18Z" fill="#858585"/>
<path d="M16 18C17.1046 18 18 17.1046 18 16C18 14.8954 17.1046 14 16 14C14.8954 14 14 14.8954 14 16C14 17.1046 14.8954 18 16 18Z" fill="#858585"/>
<path d="M25 16C25 17.1046 24.1046 18 23 18C21.8954 18 21 17.1046 21 16C21 14.8954 21.8954 14 23 14C24.1046 14 25 14.8954 25 16Z" fill="#858585"/>
</svg>
