<svg width="32" height="32" viewBox="0 0 32 32" fill="none" xmlns="http://www.w3.org/2000/svg">
<path d="M6.66666 6.66663C5.93028 6.66663 5.33333 7.26358 5.33333 7.99996C5.33333 8.73634 5.93028 9.33329 6.66666 9.33329H25.3333C26.0697 9.33329 26.6667 8.73634 26.6667 7.99996C26.6667 7.26358 26.0697 6.66663 25.3333 6.66663H6.66666Z" fill="#858585"/>
<path d="M6.66666 12C5.93028 12 5.33333 12.5969 5.33333 13.3333C5.33333 14.0697 5.93028 14.6666 6.66666 14.6666H17.3333C18.0697 14.6666 18.6667 14.0697 18.6667 13.3333C18.6667 12.5969 18.0697 12 17.3333 12H6.66666Z" fill="#858585"/>
<path d="M5.33333 18.6666C5.33333 17.9302 5.93028 17.3333 6.66666 17.3333H25.3333C26.0697 17.3333 26.6667 17.9302 26.6667 18.6666C26.6667 19.403 26.0697 20 25.3333 20H6.66666C5.93028 20 5.33333 19.403 5.33333 18.6666Z" fill="#858585"/>
<path d="M6.66666 22.6666C5.93028 22.6666 5.33333 23.2636 5.33333 24C5.33333 24.7363 5.93028 25.3333 6.66666 25.3333H17.3333C18.0697 25.3333 18.6667 24.7363 18.6667 24C18.6667 23.2636 18.0697 22.6666 17.3333 22.6666H6.66666Z" fill="#858585"/>
</svg>
