<svg width="32" height="32" viewBox="0 0 32 32" fill="none" xmlns="http://www.w3.org/2000/svg">
<path fill-rule="evenodd" clip-rule="evenodd" d="M21 5.5C24.866 5.5 28 8.63401 28 12.5C28 18.2694 24.2975 23.1517 17.2206 27.11C16.4622 27.5343 15.538 27.5343 14.7796 27.1101C7.7025 23.1517 4 18.2695 4 12.5C4 8.63401 7.13401 5.5 11 5.5C12.8298 5.5 14.621 6.4144 16 7.82824C17.379 6.4144 19.1702 5.5 21 5.5Z" fill="#FF4060"/>
<path fill-rule="evenodd" clip-rule="evenodd" d="M29.9796 20.5234C31.1865 21.2121 32 22.511 32 24V28C32 30.2091 30.2091 32 28 32H21C18.7909 32 17 30.2091 17 28V24C17 22.511 17.8135 21.2121 19.0204 20.5234C19.2619 17.709 21.623 15.5 24.5 15.5C27.377 15.5 29.7381 17.709 29.9796 20.5234Z" fill="white"/>
<path fill-rule="evenodd" clip-rule="evenodd" d="M28 22C29.1046 22 30 22.8954 30 24V28C30 29.1046 29.1046 30 28 30H21C19.8954 30 19 29.1046 19 28V24C19 22.8954 19.8954 22 21 22V21C21 19.067 22.567 17.5 24.5 17.5C26.433 17.5 28 19.067 28 21V22ZM23 21C23 20.1716 23.6716 19.5 24.5 19.5C25.3284 19.5 26 20.1716 26 21V22H23V21Z" fill="#1F1F1F"/>
</svg>
