<svg width="32" height="32" viewBox="0 0 32 32" fill="none" xmlns="http://www.w3.org/2000/svg">
<path d="M8.00001 12C8.00001 7.58172 11.5817 4 16 4C20.4183 4 24 7.58172 24 12V15.8599L25.9615 22.7253C26.0477 23.027 25.9873 23.3517 25.7984 23.6022C25.6094 23.8527 25.3138 24 25 24H7.00001C6.68622 24 6.39062 23.8527 6.20166 23.6022C6.0127 23.3517 5.95228 23.027 6.03848 22.7253L8.00001 15.8599V12Z" fill="#858585"/>
<path d="M12.2275 25.333C12.7767 26.8866 14.2583 27.9997 15.9999 27.9997C17.7416 27.9997 19.2232 26.8866 19.7723 25.333H12.2275Z" fill="#858585"/>
</svg>
