<svg width="32" height="32" viewBox="0 0 32 32" fill="none" xmlns="http://www.w3.org/2000/svg">
<path d="M21.4142 8.99994L17.7071 12.707C17.3166 13.0976 16.6834 13.0976 16.2929 12.707C15.9024 12.3165 15.9024 11.6833 16.2929 11.2928L17.5857 10.0001H16C12.6863 10.0001 9.99997 12.6863 9.99997 16.0001C9.99997 17.0351 10.2612 18.0062 10.7206 18.8539C10.9837 19.3394 10.8034 19.9464 10.3178 20.2095C9.83222 20.4726 9.22528 20.2923 8.96216 19.8067C8.3482 18.6737 7.99997 17.3761 7.99997 16.0001C7.99997 11.5818 11.5817 8.00006 16 8.00006H17.586L16.293 6.70697C15.9024 6.31644 15.9025 5.68328 16.293 5.29276C16.6835 4.90224 17.3167 4.90225 17.7072 5.29278L21.4142 8.99994Z" fill="#858585"/>
<path d="M14.4141 22.0001L16 22.0001C19.3137 22.0001 22 19.3138 22 16.0001C22 14.965 21.7387 13.9939 21.2793 13.1461C21.0162 12.6606 21.1965 12.0536 21.682 11.7905C22.1676 11.5274 22.7746 11.7077 23.0377 12.1932C23.6517 13.3263 24 14.624 24 16.0001C24 20.4183 20.4182 24.0001 16 24.0001L14.4144 24.0001L15.7072 25.2928C16.0977 25.6833 16.0978 26.3165 15.7072 26.707C15.3167 27.0976 14.6836 27.0976 14.293 26.7071L10.5858 23L14.2929 19.2929C14.6834 18.9023 15.3166 18.9023 15.7071 19.2929C16.0976 19.6834 16.0976 20.3165 15.7071 20.7071L14.4141 22.0001Z" fill="#858585"/>
</svg>
