<svg width="32" height="32" viewBox="0 0 32 32" fill="none" xmlns="http://www.w3.org/2000/svg">
<path d="M9.00006 10.5856L12.7072 14.2927C13.0977 14.6832 13.0977 15.3164 12.7072 15.7069C12.3166 16.0975 11.6835 16.0975 11.2929 15.7069L10.0002 14.4142V15.9999C10.0002 19.3136 12.6865 21.9999 16.0002 21.9999C17.0352 21.9999 18.0063 21.7386 18.854 21.2793C19.3395 21.0161 19.9465 21.1965 20.2096 21.682C20.4727 22.1676 20.2924 22.7746 19.8068 23.0377C18.6738 23.6516 17.3762 23.9999 16.0002 23.9999C11.5819 23.9999 8.00018 20.4182 8.00018 15.9999V14.4138L6.70709 15.7069C6.31656 16.0974 5.6834 16.0974 5.29288 15.7069C4.90236 15.3163 4.90237 14.6832 5.29291 14.2927L9.00006 10.5856Z" fill="#858585"/>
<path d="M22.0002 17.5857L22.0002 15.9999C22.0002 12.6862 19.3139 9.99988 16.0002 9.99988C14.9651 9.99988 13.994 10.2612 13.1463 10.7205C12.6607 10.9837 12.0537 10.8034 11.7906 10.3178C11.5275 9.83223 11.7078 9.22529 12.1934 8.96215C13.3264 8.34815 14.6241 7.99988 16.0002 7.99988C20.4185 7.99988 24.0002 11.5816 24.0002 15.9999L24.0002 17.5854L25.2929 16.2926C25.6835 15.9021 26.3166 15.9021 26.7071 16.2926C27.0977 16.6831 27.0977 17.3163 26.7072 17.7068L23.0001 21.4141L19.293 17.7069C18.9025 17.3164 18.9025 16.6832 19.293 16.2927C19.6835 15.9022 20.3167 15.9022 20.7072 16.2927L22.0002 17.5857Z" fill="#858585"/>
</svg>
