<svg width="32" height="32" viewBox="0 0 32 32" fill="none" xmlns="http://www.w3.org/2000/svg">
<path fill-rule="evenodd" clip-rule="evenodd" d="M18.4902 11.2091L11.9335 15.2439C11.9771 15.4474 12 15.6585 12 15.875C12 16.0915 11.9771 16.3026 11.9335 16.5061L18.4902 20.5409C19.0053 20.1244 19.661 19.875 20.375 19.875C22.0319 19.875 23.375 21.2181 23.375 22.875C23.375 24.5319 22.0319 25.875 20.375 25.875C18.7181 25.875 17.375 24.5319 17.375 22.875C17.375 22.6585 17.3979 22.4474 17.4415 22.2439L10.8848 18.2091C10.3697 18.6256 9.714 18.875 9 18.875C7.34315 18.875 6 17.5319 6 15.875C6 14.2181 7.34315 12.875 9 12.875C9.714 12.875 10.3697 13.1244 10.8848 13.5409L17.4415 9.50606C17.3979 9.30259 17.375 9.09147 17.375 8.875C17.375 7.21815 18.7181 5.875 20.375 5.875C22.0319 5.875 23.375 7.21815 23.375 8.875C23.375 10.5319 22.0319 11.875 20.375 11.875C19.661 11.875 19.0053 11.6256 18.4902 11.2091Z" fill="#858585"/>
</svg>
