<svg width="32" height="32" viewBox="0 0 32 32" fill="none" xmlns="http://www.w3.org/2000/svg">
<path fill-rule="evenodd" clip-rule="evenodd" d="M25 15C25 15.0852 24.9987 15.1701 24.996 15.2547C26.7459 15.8713 28 17.5392 28 19.5C28 21.9853 25.9853 24 23.5 24H9.5C6.46243 24 4 21.5376 4 18.5C4 15.546 6.32879 13.1359 9.25061 13.0056C10.1368 9.55228 13.2703 7 17 7C21.4183 7 25 10.5817 25 15ZM16 14.5858L20.7071 19.2929C21.0976 19.6834 21.0976 20.3166 20.7071 20.7071C20.3166 21.0976 19.6834 21.0976 19.2929 20.7071L17 18.4142V26C17 26.5523 16.5523 27 16 27C15.4477 27 15 26.5523 15 26V18.4142L12.7071 20.7071C12.3166 21.0976 11.6834 21.0976 11.2929 20.7071C10.9024 20.3166 10.9024 19.6834 11.2929 19.2929L16 14.5858Z" fill="#858585"/>
</svg>
