<svg width="32" height="32" viewBox="0 0 32 32" fill="none" xmlns="http://www.w3.org/2000/svg">
<path d="M25.3333 6.66671C25.3333 5.93033 24.7364 5.33337 24 5.33337C23.2636 5.33337 22.6667 5.93033 22.6667 6.66671V25.3334C22.6667 26.0698 23.2636 26.6667 24 26.6667C24.7364 26.6667 25.3333 26.0697 25.3333 25.3334V6.66671Z" fill="#858585"/>
<path d="M20 6.66671C20 5.93033 19.403 5.33337 18.6667 5.33337C17.9303 5.33337 17.3333 5.93033 17.3333 6.66671V17.3334C17.3333 18.0698 17.9303 18.6667 18.6667 18.6667C19.403 18.6667 20 18.0698 20 17.3334V6.66671Z" fill="#858585"/>
<path d="M13.3333 5.33337C14.0697 5.33337 14.6667 5.93033 14.6667 6.66671V25.3334C14.6667 26.0697 14.0697 26.6667 13.3333 26.6667C12.5969 26.6667 12 26.0698 12 25.3334V6.66671C12 5.93033 12.5969 5.33337 13.3333 5.33337Z" fill="#858585"/>
<path d="M9.33332 6.66671C9.33332 5.93033 8.73637 5.33337 7.99999 5.33337C7.26361 5.33337 6.66666 5.93033 6.66666 6.66671V17.3334C6.66666 18.0698 7.26361 18.6667 7.99999 18.6667C8.73637 18.6667 9.33332 18.0698 9.33332 17.3334V6.66671Z" fill="#858585"/>
</svg>
