<svg width="32" height="32" viewBox="0 0 32 32" fill="none" xmlns="http://www.w3.org/2000/svg">
<path d="M15 11C15 10.4477 14.5523 10 14 10C13.4477 10 13 10.4477 13 11V13.0059H10.9941C10.4419 13.0059 9.99414 13.4536 9.99414 14.0059C9.99414 14.5581 10.4419 15.0059 10.9941 15.0059H13V17.0117C13 17.564 13.4477 18.0117 14 18.0117C14.5523 18.0117 15 17.564 15 17.0117V15.0059H17.0059C17.5581 15.0059 18.0059 14.5581 18.0059 14.0059C18.0059 13.4536 17.5581 13.0059 17.0059 13.0059H15V11Z" fill="#858585"/>
<path fill-rule="evenodd" clip-rule="evenodd" d="M20.8924 18.0639C21.5961 16.8729 22 15.4836 22 14C22 9.58172 18.4183 6 14 6C9.58172 6 6 9.58172 6 14C6 18.4183 9.58172 22 14 22C15.4836 22 16.8729 21.5961 18.0639 20.8924L21.6483 24.4767C22.4293 25.2578 23.6957 25.2578 24.4767 24.4767C25.2578 23.6957 25.2578 22.4293 24.4767 21.6483L20.8924 18.0639ZM14 20C17.3137 20 20 17.3137 20 14C20 10.6863 17.3137 8 14 8C10.6863 8 8 10.6863 8 14C8 17.3137 10.6863 20 14 20Z" fill="#858585"/>
</svg>
