<svg width="10" height="14" viewBox="0 0 10 14" fill="none" xmlns="http://www.w3.org/2000/svg">
<path fill-rule="evenodd" clip-rule="evenodd" d="M5 11L10 13.5V3C10 1.89543 9.10457 1 8 1H2C0.895431 1 0 1.89543 0 3V13.5L5 11ZM1 11.882L5 9.88197L9 11.882V3C9 2.44772 8.55228 2 8 2H2C1.44772 2 1 2.44772 1 3V11.882Z" fill="#858585"/>
<path fill-rule="evenodd" clip-rule="evenodd" d="M1 11.882L5 9.88197L9 11.882V3C9 2.44772 8.55228 2 8 2H2C1.44772 2 1 2.44772 1 3V11.882Z" fill="white"/>
<path d="M9 11.882V3C9 2.44772 8.55228 2 8 2H2C1.44772 2 1 2.44772 1 3V11.882L5 9.88197L9 11.882Z" fill="white"/>
</svg>
