<svg width="24" height="24" fill="none" xmlns="http://www.w3.org/2000/svg" viewBox="0 0 24 24"><path d="M2 3a1 1 0 011-1h4a1 1 0 011 1v4a1 1 0 01-1 1H3a1 1 0 01-1-1V3zm7 0a1 1 0 011-1h4a1 1 0 011 1v4a1 1 0 01-1 1h-4a1 1 0 01-1-1V3zm8-1a1 1 0 00-1 1v4a1 1 0 001 1h4a1 1 0 001-1V3a1 1 0 00-1-1h-4zM2 10a1 1 0 011-1h4a1 1 0 011 1v4a1 1 0 01-1 1H3a1 1 0 01-1-1v-4zm8-1a1 1 0 00-1 1v4a1 1 0 001 1h4a1 1 0 001-1v-4a1 1 0 00-1-1h-4zm6 1a1 1 0 011-1h4a1 1 0 011 1v4a1 1 0 01-1 1h-4a1 1 0 01-1-1v-4zM3 16a1 1 0 00-1 1v4a1 1 0 001 1h4a1 1 0 001-1v-4a1 1 0 00-1-1H3zm6 1a1 1 0 011-1h4a1 1 0 011 1v4a1 1 0 01-1 1h-4a1 1 0 01-1-1v-4zm8-1a1 1 0 00-1 1v4a1 1 0 001 1h4a1 1 0 001-1v-4a1 1 0 00-1-1h-4z" fill="currentColor"></path></svg>