<svg width="24" height="24" fill="none" xmlns="http://www.w3.org/2000/svg" viewBox="0 0 24 24"><path d="M6 5a1 1 0 00-1 1v2a1 1 0 001 1h2a1 1 0 001-1V6a1 1 0 00-1-1H6zm0 5a1 1 0 00-1 1v2a1 1 0 001 1h2a1 1 0 001-1v-2a1 1 0 00-1-1H6zm-1 6a1 1 0 011-1h2a1 1 0 011 1v2a1 1 0 01-1 1H6a1 1 0 01-1-1v-2zm6-11a1 1 0 00-1 1v2a1 1 0 001 1h7a1 1 0 001-1V6a1 1 0 00-1-1h-7zm-1 6a1 1 0 011-1h7a1 1 0 011 1v2a1 1 0 01-1 1h-7a1 1 0 01-1-1v-2zm1 4a1 1 0 00-1 1v2a1 1 0 001 1h7a1 1 0 001-1v-2a1 1 0 00-1-1h-7z" fill="currentColor"></path></svg>